<svg width="72" height="71" viewBox="0 0 72 71" fill="none" xmlns="http://www.w3.org/2000/svg">
<path fill-rule="evenodd" clip-rule="evenodd" d="M46.1919 3.0535C46.2321 3.42974 46.2513 3.83341 46.2445 4.24637C46.2216 5.63047 47.1061 6.5089 47.4478 5.44128C47.5744 5.04647 47.8428 4.72336 48.0441 4.72336C48.2459 4.72336 48.3256 4.5027 48.2212 4.23343C48.1087 3.94213 48.3072 3.67182 48.7107 3.56691C49.6597 3.32107 49.9238 2.39891 49.3631 1.29142C49.2741 1.11606 49.1845 0.939338 49.1024 0.777335C48.9426 0.462165 48.811 0.202717 48.7675 0.117488C48.7015 -0.0118995 48.9523 -0.0384705 49.3247 0.0580459C49.5066 0.105231 49.665 0.1096 49.798 0.0806586C50.5484 1.08104 52.0493 3.08547 53.8238 5.4574C53.2782 6.82781 53.9633 8.4697 55.6893 9.32782C56.1624 9.56303 56.6048 9.68508 57.008 9.71456L60.0247 13.7478H58.7059C57.1929 13.7478 55.8198 14.5407 55.8198 15.4139C55.8198 15.7424 57.7239 18.6552 60.0512 21.8869C62.3785 25.1186 64.2826 28.0073 64.2826 28.3067C64.2826 28.7567 63.8076 28.8507 61.5322 28.8507C56.501 28.8507 56.6294 29.5671 63.0445 37.2891C65.8546 40.6715 68.1554 43.5548 68.1575 43.6962C68.1596 43.8376 66.9678 43.9536 65.5093 43.9536C63.8804 43.9536 63.2351 43.9784 62.8795 44.2194C62.6517 43.9353 62.3912 43.7 62.1089 43.5502C61.1363 43.0337 59.5457 43.1061 58.6821 43.7062C57.5359 44.5021 57.3366 46.3643 58.2359 47.8753C58.6478 48.568 59.1945 49.1349 59.4498 49.1349C59.7055 49.1349 59.9781 49.3237 60.056 49.5549C60.2458 50.12 62.7949 48.9352 62.7949 48.2816C62.7949 48.0229 63.0329 47.7204 63.3239 47.6095C63.3614 47.5952 63.3966 47.5779 63.4294 47.5576C64.166 48.7725 65.3597 50.5896 67.2312 53.407C69.3736 56.6325 71.222 59.4954 72 60.7799C71.6518 60.6875 71.2479 60.7595 71.0755 61.0358C70.9649 61.2134 70.9686 61.4624 71.0711 61.6473C69.2897 61.7423 65.8508 61.8026 61.638 61.8026H52.815C52.1664 61.0981 50.9659 61.2162 50.1281 62.3828C49.4083 63.3851 49.4083 63.3966 50.0928 64.2597C50.3618 64.5988 50.6117 64.8119 50.8831 64.9174V65.0898C50.8831 68.0355 50.764 70.3102 50.46 70.6061C49.863 71.1872 48.7593 71.1172 48.0019 70.4499C47.4144 69.9326 47.357 69.2118 47.357 64.9337V61.8026H36.7785C29.5368 61.8026 26.1999 61.6872 26.1999 61.4373C26.1999 61.2365 28.6037 57.6026 31.5417 53.3621C36.4548 46.2706 36.8514 45.5841 36.4858 44.8028C36.1057 43.9907 35.9495 43.9536 32.9071 43.9536C31.1577 43.9536 29.7261 43.8541 29.7261 43.7326C29.7261 43.6107 32.0269 40.7285 34.8391 37.3269C41.3875 29.4064 41.4372 28.9516 35.7746 28.7786L32.5171 28.6791L33.533 27.3061C38.806 20.1775 41.7151 15.9586 41.7151 15.439C41.7151 14.5784 40.3776 13.7478 38.9918 13.7478C38.3564 13.7478 37.8363 13.6712 37.8363 13.5775C37.8363 13.4842 40.3928 10.2319 43.5177 6.35042C44.4788 5.15663 45.3898 4.03405 46.1919 3.0535ZM50.1355 4.47718C49.6826 4.92619 49.2238 4.57928 49.5589 4.04144C49.6886 3.83337 49.9563 3.76203 50.1538 3.88303C50.3947 4.0306 50.3887 4.22609 50.1355 4.47718ZM50.8249 9.26942C50.6422 9.26942 50.395 9.11206 50.2751 8.91972C50.1552 8.72739 50.3048 8.57003 50.607 8.57003C50.9092 8.57003 51.1568 8.72739 51.1568 8.91972C51.1568 9.11206 51.0076 9.26942 50.8249 9.26942ZM13.3507 11.0879C13.1441 10.8829 13.0749 10.457 13.197 10.1412C13.4794 9.41174 14.6094 9.60618 14.7656 10.4112C14.906 11.1337 13.8882 11.6208 13.3507 11.0879ZM44.1242 11.0179C43.919 11.0179 43.7508 10.8605 43.7508 10.6682C43.7508 10.4759 43.8206 10.3185 43.9063 10.3185C43.992 10.3185 44.1599 10.4759 44.2798 10.6682C44.3997 10.8605 44.3295 11.0179 44.1242 11.0179ZM40.3715 12.2044C39.5089 12.5328 39.3949 12.4615 39.8714 11.8921C40.3581 11.311 40.9294 11.1963 40.9294 11.6799C40.9294 11.8516 40.6783 12.0876 40.3715 12.2044ZM13.0686 19.0609C12.0666 18.0675 12.1735 16.8117 13.3331 15.9539C14.6164 15.0045 14.991 15.0349 15.8843 16.1609C17.6388 18.3724 15.0566 21.0322 13.0686 19.0609ZM54.0261 17.588C53.2975 17.4488 53.0563 16.2623 53.6791 15.8808C54.3245 15.4849 55.1243 16.3281 54.8284 17.0928C54.7001 17.4247 54.3389 17.6475 54.0261 17.588ZM22.3713 17.3125C21.9026 17.3125 21.8782 17.2177 22.238 16.7879C22.266 16.7544 22.2943 16.7216 22.3225 16.6898C22.0961 16.3393 21.9685 16.1186 21.9685 16.0695C21.9685 15.1774 22.7753 14.4343 23.744 14.4343C24.3191 14.4343 24.7828 14.3183 24.7743 14.1768C24.7496 13.755 17.564 4.36439 17.1952 4.27206C17.0083 4.22537 15.0597 6.45409 12.865 9.22479C8.92912 14.1937 8.88786 14.2644 9.86779 14.3787C11.085 14.5211 11.7427 15.0157 11.7427 15.7891C11.7427 16.0313 10.8872 17.4192 9.67804 19.1737C9.80851 19.264 9.89456 19.4047 9.89456 19.5855C9.89456 19.8768 9.58104 20.11 9.18922 20.11C9.13246 20.11 9.07888 20.1076 9.02858 20.1029C8.82436 20.3912 8.61368 20.6851 8.39843 20.9817L5.05421 25.5898L7.23903 25.6938C11.5522 25.8995 11.4609 26.9532 6.62195 32.7981C4.59017 35.2523 2.92793 37.3763 2.92758 37.5177C2.92722 37.6591 3.87365 37.7752 5.03059 37.7752C6.79931 37.7752 7.19636 37.8888 7.52606 38.4884C7.74186 38.8808 7.82578 39.4361 7.71294 39.7224C7.60011 40.0087 5.77108 42.7588 3.64833 45.834C3.32042 46.3089 3.00406 46.7728 2.70395 47.2182C3.28206 46.9963 3.40691 47.0381 3.82868 47.4564C4.8761 48.495 3.78636 50.0578 2.66029 49.1311C2.327 48.857 2.15428 48.4276 2.15115 48.0452C0.809017 50.0701 -0.083159 51.5496 0.00614531 51.6366C0.126035 51.7529 3.60883 51.8484 7.74644 51.8484H15.2688V54.505C15.2688 58.7132 15.3154 59.1416 16.0012 59.8092C16.4042 60.2016 16.9727 60.4333 17.2643 60.3241C17.5562 60.2153 17.9152 60.126 18.0619 60.126C18.838 60.126 19.1476 58.0178 19.1476 54.1456V53.3583C18.8181 53.8027 18.2113 53.5967 18.0634 52.8403C17.9879 52.4553 18.2211 52.1608 18.6989 52.037C18.9038 51.9839 19.053 51.9451 19.1476 51.9019V51.8484H19.2332C19.3487 51.7389 19.1988 51.5721 18.795 51.1444V51.5051H17.2082H15.6214V47.2361V42.9668L13.6866 41.3151C13.4341 41.0994 13.207 40.8955 13.0051 40.7019C12.3945 40.8084 11.6733 40.7001 11.4463 40.3358C11.3116 40.1195 11.5144 39.704 11.9184 39.3499C11.5743 38.6275 11.8231 38.0828 12.6242 37.572C13.4366 37.054 13.5738 37.0533 14.3749 37.5641C14.8527 37.8689 15.3288 38.1184 15.4328 38.1184C15.5365 38.1184 15.6214 37.2998 15.6214 36.2992C15.6214 35.2986 15.8118 34.2946 16.0446 34.0681C16.564 33.5625 17.2167 33.5446 18.113 34.0114C18.7354 34.3358 18.795 34.7704 18.795 38.9885C18.795 40.0578 18.8096 41.0452 18.834 41.8305C19.3447 41.8547 19.8045 41.9661 19.9939 42.1539C20.2274 42.3854 20.6675 42.4025 21.2107 42.2011C21.4262 42.1211 21.691 42.0743 21.9518 42.0621C22.7073 41.8145 23.2429 41.9249 23.674 42.3879C23.9416 42.4313 24.2161 42.4603 24.4492 42.4662C24.8153 42.4754 25.3044 42.6259 25.8728 42.8942C25.9373 42.8158 26.004 42.7351 26.073 42.652C27.2835 41.1946 27.5251 40.6859 27.2941 40.0777C26.7645 38.6827 27.4535 37.7896 29.066 37.7803C30.1264 37.7744 30.6022 37.5962 30.3645 36.8725C30.2431 36.69 30.1468 36.4838 30.076 36.2651C29.6189 35.477 28.7013 34.2967 27.2606 32.5423C22.6766 26.9597 22.5863 25.906 26.6753 25.6949L28.7127 25.5898L25.3406 20.9834C24.2622 19.5104 23.2979 18.1463 22.6796 17.2292C22.5904 17.2818 22.4846 17.3125 22.3713 17.3125ZM33.3228 33.732C32.8967 33.2986 32.5144 33.1019 32.0384 33.1255C31.7336 32.7155 31.5006 32.3205 31.497 32.1974C31.4927 32.056 32.2033 31.9399 33.076 31.9399C34.9001 31.9399 35.0182 32.1816 33.7576 33.3346L33.3228 33.732ZM30.1883 47.0877C30.4132 47.6584 30.5871 48.2408 30.6619 48.723C30.8661 48.4021 31.0442 48.1127 31.1824 47.8778C30.9322 47.6504 30.7809 47.3922 30.7341 47.1251C30.5727 47.1111 30.3894 47.0986 30.1883 47.0877ZM19.1222 18.5116C19.0573 18.2143 19.096 17.7342 19.2078 17.4446C19.32 17.1551 19.5566 17.0072 19.7337 17.1156C19.9206 17.2303 19.885 17.6765 19.648 18.1825C19.3567 18.8032 19.2064 18.8973 19.1222 18.5116ZM41.6347 19.9352C41.4408 19.8163 41.2821 19.5617 41.2821 19.3694C41.2821 19.177 41.4408 19.1169 41.6347 19.2358C41.8287 19.3547 41.9874 19.6093 41.9874 19.8016C41.9874 19.9939 41.8287 20.0541 41.6347 19.9352ZM45.3448 20.3307C44.6698 20.5874 44.2935 20.3045 44.618 19.7838C44.9107 19.3138 45.4062 19.3043 45.6919 19.7628C45.8128 19.9565 45.6566 20.2121 45.3448 20.3307ZM21.8853 24.3809C21.8853 23.2024 22.5014 22.3236 23.4723 22.1173C24.6319 21.8711 25.5774 22.6863 25.6948 24.034C25.7886 25.1125 25.6733 25.3083 24.7091 25.7041C23.1704 26.336 21.8853 25.7339 21.8853 24.3809ZM60.7494 27.3837C60.293 26.9312 60.1781 25.6188 60.5614 25.239C60.9077 24.8956 61.0844 24.945 61.7972 25.5846C62.6517 26.3514 62.6584 27.8034 61.8074 27.8034C61.4582 27.8034 60.9821 27.6145 60.7494 27.3837ZM49.7461 26.0549C49.5522 26.0549 49.3935 25.8975 49.3935 25.7052C49.3935 25.5129 49.5522 25.3555 49.7461 25.3555C49.9401 25.3555 50.0988 25.5129 50.0988 25.7052C50.0988 25.8975 49.9401 26.0549 49.7461 26.0549ZM22.238 27.104C22.044 27.104 21.8853 26.9466 21.8853 26.7543C21.8853 26.5619 22.044 26.4046 22.238 26.4046C22.4319 26.4046 22.5906 26.5619 22.5906 26.7543C22.5906 26.9466 22.4319 27.104 22.238 27.104ZM51.2823 30.5433C50.607 30.4163 50.2141 28.9214 50.5964 27.9335C50.8895 27.176 52.1506 27.952 52.4317 29.063C52.6941 30.0995 52.2134 30.7185 51.2823 30.5433ZM11.1599 33.3985C10.6331 33.3985 10.1654 32.547 10.5068 32.2089C10.7949 31.9228 11.4858 31.9459 11.7944 32.2515C11.934 32.39 12.5678 32.4592 13.2026 32.405C14.615 32.2844 15.3535 33.0327 15.0411 34.2682C14.8513 35.0176 14.6171 35.147 13.4526 35.147C12.2902 35.147 12.0543 35.0169 11.8656 34.2728C11.744 33.7919 11.4266 33.3985 11.1599 33.3985ZM52.7678 40.3344C51.0023 40.5337 49.7885 38.3023 51.0055 37.0952C51.6939 36.4129 51.7031 36.4129 52.9702 37.1553C53.8526 37.6722 53.9947 37.9509 53.9062 38.9912C53.8152 40.0589 53.6682 40.2327 52.7678 40.3344ZM46.7379 38.6527C46.0639 39.2074 45.3117 38.6227 45.6326 37.7932C45.8939 37.1183 46.3577 37.0924 46.886 37.7232C47.1907 38.0876 47.1554 38.309 46.7379 38.6527ZM61.0315 41.2667C60.7459 41.2667 60.4588 40.9912 60.3932 40.6547C60.3099 40.2253 60.5004 40.0428 61.0315 40.0428C61.5626 40.0428 61.7531 40.2253 61.6699 40.6547C61.6043 40.9912 61.3172 41.2667 61.0315 41.2667ZM50.9388 50.3374C50.9048 49.2152 50.8831 47.5673 50.8831 45.7385C50.8831 39.3273 50.7636 38.8049 49.2964 38.8049C48.8891 38.8049 48.3654 38.9903 48.1327 39.2168C47.876 39.4667 47.7096 40.6814 47.7096 42.306C47.7096 43.7786 47.5632 44.9834 47.3841 44.9834C47.205 44.9834 46.5869 44.5972 46.0107 44.1253C44.3209 42.7413 42.7659 43.146 42.7796 44.9662C42.7846 45.6256 43.3936 46.3361 45.248 47.8468L47.3465 49.556C46.7711 50.1277 46.8171 50.7693 47.5165 51.9437C47.5777 52.0463 47.6422 52.1429 47.7096 52.2334V55.484V58.0538C47.6318 57.9227 47.471 57.8773 47.2041 57.8773C46.7058 57.8773 46.5534 58.0809 46.6356 58.6369C46.7964 59.7203 47.5021 59.8121 47.7096 58.7872V59.7993C47.6061 60.1394 47.6123 60.6454 47.7096 61.0341V61.1161H47.732C47.794 61.3242 47.8843 61.4889 47.9997 61.5597C48.2028 61.6841 48.6211 61.6901 48.9293 61.5729C49.2964 61.4334 49.3989 61.3552 49.2391 61.1161H49.2964H50.8831L50.8891 58.4559L50.8948 55.7957L54.081 53.9374C57.7197 51.8154 58.2557 51.1739 57.4235 49.9375C56.6558 48.7969 56.0067 48.8847 53.4255 50.4788C52.3778 51.1255 51.4402 51.6714 51.1396 51.8128C51.2664 51.2983 51.1789 50.7795 50.9388 50.3374ZM7.39519 51.0771C6.90533 51.3772 6.21515 50.712 6.51562 50.2298C6.76602 49.828 7.77855 50.0854 7.77855 50.5505C7.77855 50.711 7.60608 50.9477 7.39519 51.0771ZM17.5326 56.7824C17.0128 57.2105 16.5953 56.9713 16.5953 56.2453C16.5953 55.989 16.9127 55.7791 17.3006 55.7791C18.1142 55.7791 18.2161 56.2198 17.5326 56.7824ZM31.4074 56.8282C31.2134 56.8282 31.0547 56.6709 31.0547 56.4785C31.0547 56.2862 31.2134 56.1288 31.4074 56.1288C31.6013 56.1288 31.76 56.2862 31.76 56.4785C31.76 56.6709 31.6013 56.8282 31.4074 56.8282ZM56.6761 59.7321C55.9094 60.0238 54.8778 59.1404 55.1536 58.4277C55.4855 57.5703 56.9466 57.8479 57.0827 58.7946C57.1412 59.2027 56.9586 59.6248 56.6761 59.7321ZM66.6876 60.3322C65.9995 59.9671 65.7033 58.6068 66.2041 58.1106C66.3332 57.9822 66.804 57.8773 67.2494 57.8773C68.0599 57.8773 68.7902 58.767 68.7902 59.7542C68.7902 60.4647 67.5696 60.8005 66.6876 60.3322ZM64.5374 61.724C64.3547 61.724 64.2055 61.5666 64.2055 61.3743C64.2055 61.182 64.4531 61.0246 64.7553 61.0246C65.0576 61.0246 65.2071 61.182 65.0872 61.3743C64.9673 61.5666 64.7201 61.724 64.5374 61.724Z" fill="black"/>
</svg>
