<svg width="61" height="69" viewBox="0 0 61 69" fill="none" xmlns="http://www.w3.org/2000/svg">
<path fill-rule="evenodd" clip-rule="evenodd" d="M31.1349 2.51758C30.5768 2.17111 30.5148 1.64351 30.9783 1.18659C31.593 0.580319 32.3527 0.810842 32.3527 1.60349C32.3527 2.41947 31.7299 2.88692 31.1349 2.51758ZM28.6694 3.35352L27.3549 1.10606L28.3526 0.765879C31.2885 -0.235729 34.5626 -0.255568 37.4752 0.710187C38.9926 1.21326 39.8669 1.4507 39.9238 1.81314C39.997 2.27961 38.7163 2.95313 35.71 4.66644L31.0055 7.34759L29.1802 4.22682L29.0829 4.06049C29.1112 3.92791 29.1041 3.77756 29.0516 3.62949C28.9899 3.45497 28.8356 3.36437 28.6694 3.35352ZM18.8783 5.20587C18.8803 5.56763 19.1472 5.84244 19.6474 5.96628C20.4505 6.16501 20.9817 5.64131 20.7801 4.84957C20.7408 4.69528 20.6957 4.57849 20.6334 4.49124C20.9254 4.36754 21.2164 4.24179 21.506 4.11411L24.9201 2.60933L27.8094 7.54925L29.6188 10.6428C29.3792 10.5154 29.1571 10.4354 28.998 10.4347C28.8115 10.4338 28.0987 11.0247 27.4137 11.7481C26.2995 12.9245 26.1814 13.1443 26.293 13.8347C26.3614 14.2592 26.464 14.6521 26.5206 14.7079C26.557 14.7437 26.8199 14.7919 27.1844 14.8346C24.4482 16.7809 21.214 19.601 19.0154 21.9836C18.0621 23.0168 17.1425 23.9438 16.9715 24.0438C16.538 24.2973 15.9492 23.6469 13.3739 20.0685C11.2481 17.1146 8.82882 12.5099 7.75658 9.37658C7.58198 8.86653 7.46406 8.43514 7.49444 8.41782C7.52482 8.40051 8.62215 8.17582 9.93284 7.91801C12.5664 7.40067 15.7262 6.43811 18.8783 5.20587ZM22.3022 6.81862C22.2607 6.52863 22.3466 6.14878 22.4932 5.97451C22.9411 5.44257 23.7699 5.9043 23.7699 6.68597C23.7699 7.26662 23.6864 7.34575 23.074 7.34575C22.524 7.34575 22.3623 7.2353 22.3022 6.81862ZM0 10.1851C0.29665 9.92425 0.537095 9.57035 0.637933 9.2042C0.973495 9.14747 1.4419 9.09452 2.08696 9.03018C3.37059 8.90239 4.45956 8.80503 4.50651 8.81417C4.5258 8.81802 4.6139 9.01284 4.74639 9.33733C4.67294 9.30243 4.55798 9.26402 4.40086 9.22355C4.14593 9.15769 3.87871 9.19725 3.80727 9.31114C3.73582 9.42503 3.9446 9.51834 4.27098 9.51834C4.54409 9.51834 4.72075 9.49909 4.79854 9.46606C4.98725 9.93521 5.24762 10.6159 5.52381 11.3681C7.07181 15.5843 12.1442 23.8273 14.6488 26.1982C14.9846 26.516 14.7855 26.9979 13.7029 28.4873C12.2967 30.4215 11.8715 30.596 11.1942 29.5167C11.0561 29.2963 10.2826 28.2685 9.4751 27.2329C8.93123 26.5351 8.27229 25.5725 7.55695 24.452C7.58397 24.4288 7.60242 24.4044 7.61106 24.3788C7.65838 24.2386 7.92862 23.8588 8.21139 23.5347C8.66883 23.0103 8.69829 22.8443 8.47861 22.0324C8.19492 20.985 7.69736 20.6024 6.33849 20.3872C5.75901 20.2954 5.49852 20.2856 5.17273 20.5018C3.56072 17.7029 1.9731 14.7048 0.950453 12.4904C0.980341 12.4911 1.01122 12.4914 1.04314 12.4914C1.68291 12.4914 1.84899 12.401 1.84899 12.0527C1.84899 11.8114 1.90955 11.4581 1.98378 11.2676C2.1907 10.7361 0.972621 10.2104 0.16723 10.4837C0.147755 10.4903 0.128772 10.4968 0.110277 10.5033C0.0695044 10.3912 0.0326778 10.285 0 10.1851ZM25.5233 7.4601C25.3883 7.4601 25.2777 7.35719 25.2777 7.23141C25.2777 7.10563 25.3236 7.00271 25.38 7.00271C25.4364 7.00271 25.5468 7.10563 25.6257 7.23141C25.7045 7.35719 25.6583 7.4601 25.5233 7.4601ZM16.5789 7.91749C16.2166 7.91749 16.1187 7.64694 16.3857 7.38394C16.6525 7.12072 16.9269 7.21723 16.9269 7.57445C16.9269 7.76312 16.7703 7.91749 16.5789 7.91749ZM19.2465 7.91749C19.119 7.91749 19.0146 7.81457 19.0146 7.68879C19.0146 7.56301 19.119 7.4601 19.2465 7.4601C19.3741 7.4601 19.4785 7.56301 19.4785 7.68879C19.4785 7.81457 19.3741 7.91749 19.2465 7.91749ZM17.9777 13.4118C17.703 13.187 17.6798 13.0423 17.8803 12.804C18.2277 12.3914 18.5328 12.4083 18.7047 12.8497C18.9157 13.3922 18.421 13.7746 17.9777 13.4118ZM27.2798 13.1093C27.1993 13.1886 27.1334 13.1335 27.1334 12.9869C27.1334 12.686 27.2603 12.6679 28.0008 12.8634C28.2863 12.9389 28.4626 13.0921 28.3926 13.204C28.3195 13.3208 28.0866 13.3131 27.8458 13.1861C27.615 13.0645 27.3605 13.0299 27.2798 13.1093ZM18.5597 14.6694C18.3648 14.5507 18.3692 14.4222 18.5759 14.1766C18.7701 13.9458 18.9297 13.917 19.0976 14.0826C19.4073 14.3879 18.9378 14.8999 18.5597 14.6694ZM23.5783 16.7926C22.9383 16.7023 22.7822 15.9279 23.325 15.5366C23.8711 15.143 24.0376 15.157 24.2144 15.611C24.4633 16.2504 24.1294 16.8704 23.5783 16.7926ZM35.7572 23.977C35.3935 24.3264 34.9009 23.8766 35.0983 23.3696C35.1474 23.2434 35.2456 23.1354 35.3527 23.0765C35.1172 22.5466 34.8809 22.0058 34.6433 21.4532C33.2239 18.1519 32.0264 15.3887 31.9825 15.3137C31.8791 15.1369 29.3439 16.6724 28.0434 17.6993L27.039 18.4922L29.2035 23.6044C30.1816 25.9145 31.1068 27.9782 32.0259 29.8721C32.0348 29.7377 32.0603 29.6018 32.0994 29.5011C32.1732 29.3117 32.3288 29.215 32.4453 29.2859C32.5682 29.3609 32.5448 29.6527 32.3889 29.9836C32.324 30.121 32.2698 30.219 32.2243 30.2786C32.7871 31.4244 33.3488 32.5084 33.9204 33.5485C34.0551 33.0297 34.4098 32.6614 34.9044 32.5569C35.6671 32.3959 36.289 32.929 36.3662 33.8104C36.4279 34.5157 36.3521 34.6437 35.7178 34.9026C35.3755 35.0424 35.0522 35.0898 34.7742 35.0572C36.1263 37.3755 37.5592 39.5045 39.2068 41.6632C39.0516 41.0166 39.2179 40.261 39.7177 40.0169C40.5342 39.6183 40.9327 39.6651 41.4484 40.2204C42.2004 41.0304 42.2809 41.6152 41.7346 42.2999C41.2306 42.9316 40.6956 43.0489 39.988 42.669C40.9626 43.9023 42.013 45.1562 43.1636 46.4707L46.2346 49.9785L48.583 48.7464C49.8748 48.0685 50.973 47.3611 51.0235 47.1742C51.074 46.9873 50.1542 45.7503 48.9797 44.4253C43.7011 38.4699 40.2002 33.2911 36.7813 26.1718C36.529 26.0734 36.3927 25.8152 36.4994 25.5801C36.252 25.0567 36.0049 24.5226 35.7572 23.977ZM35.6306 23.6972C35.5602 23.5409 35.4897 23.3836 35.4191 23.2254C35.1416 23.406 35.2369 23.6897 35.6306 23.6972ZM34.1802 29.4147C33.8719 29.4147 33.8559 29.3527 34.0925 29.0716C34.2514 28.8829 34.4207 28.7286 34.4687 28.7286C34.517 28.7286 34.5564 28.8829 34.5564 29.0716C34.5564 29.2603 34.3871 29.4147 34.1802 29.4147ZM36.6615 30.9716C36.5244 31.0166 36.4121 30.8822 36.4121 30.6725C36.4121 30.4628 36.5244 30.3283 36.6615 30.3733C36.7986 30.4184 36.9109 30.5529 36.9109 30.6725C36.9109 30.7921 36.7986 30.9265 36.6615 30.9716ZM37.6852 33.0715C37.2776 32.738 37.5826 32.2248 38.3563 31.9429C39.1313 31.6602 39.4143 31.7549 39.9687 32.483C40.6783 33.4145 40.7952 33.7768 40.5753 34.3601C40.3584 34.9353 39.1375 35.1933 38.5699 34.7841C38.2284 34.5381 38.227 34.4665 38.5546 34.0052C38.778 33.6908 38.974 33.5911 39.0693 33.7431C39.3168 34.1381 39.5952 34.0274 39.7418 33.4753C39.9413 32.7232 39.4296 32.3113 38.656 32.6013C38.315 32.7291 38.0359 32.9519 38.0359 33.0962C38.0359 33.2825 37.9346 33.2755 37.6852 33.0715ZM41.1844 38.244C40.6105 38.102 40.3739 37.477 40.7529 37.1035C41.0745 36.7866 42.0902 37.0704 42.173 37.5003C42.2897 38.1059 41.878 38.4156 41.1844 38.244ZM51.1002 50.2878L52.8498 49.2907L54.4692 51.6545C54.5526 51.7763 54.6427 51.9129 54.7387 52.0627C54.6067 52.0786 54.4789 52.1416 54.4058 52.2581C54.2479 52.5099 54.8392 53.0224 55.0489 52.8157C55.0782 52.7867 55.1057 52.7428 55.1291 52.6908C56.8026 55.4529 59.6136 60.8601 60.7168 63.5117C61.134 64.5145 61.1073 64.8542 60.5228 65.6991C60.4904 65.6113 60.4047 65.5482 60.3048 65.5482C60.1772 65.5482 60.0728 65.6511 60.0728 65.7769C60.0728 65.9008 60.1742 66.0026 60.2992 66.0055C59.2996 67.3024 57.8056 68.3402 56.3934 68.7028C54.2575 69.2514 54.206 69.2188 53.7881 67.0444C53.1179 63.5566 51.6891 59.6481 49.7089 55.8854L47.7636 52.1893L50.3066 50.7401L50.4916 50.6346C50.242 50.9779 50.3131 51.3844 50.7194 52.0626C51.3912 53.1839 52.6835 53.2004 53.0681 52.0928C53.381 51.1915 52.6403 50.2257 51.6366 50.2257C51.4574 50.2257 51.2688 50.249 51.1002 50.2878ZM51.8268 52.284C51.4383 52.284 51.1847 51.8998 51.374 51.5979C51.5325 51.3452 52.031 51.2926 52.2472 51.506C52.4687 51.7241 52.1662 52.284 51.8268 52.284ZM51.606 56.4005C51.4146 56.4005 51.258 56.2461 51.258 56.0574C51.258 55.8687 51.4146 55.7144 51.606 55.7144C51.7974 55.7144 51.954 55.8687 51.954 56.0574C51.954 56.2461 51.7974 56.4005 51.606 56.4005ZM50.8491 56.5244C50.7162 57.2091 50.2465 57.1531 50.14 56.4398C50.0859 56.0762 50.1861 55.9431 50.5139 55.9431C50.8686 55.9431 50.9382 56.064 50.8491 56.5244ZM56.7441 57.1561C56.2398 57.3468 55.5613 56.7691 55.7427 56.303C55.961 55.7423 56.922 55.9239 57.0115 56.5429C57.05 56.8098 56.9299 57.0859 56.7441 57.1561ZM51.0372 58.3512C50.7679 58.187 50.706 57.2496 50.9488 57.0104C51.1235 56.8379 51.2982 56.9537 51.294 57.2391C51.2924 57.3438 51.4545 57.6075 51.654 57.825C51.9837 58.184 51.9832 58.2334 51.6487 58.3599C51.4459 58.4365 51.1708 58.4326 51.0372 58.3512ZM52.414 60.117C51.9637 59.5525 51.9637 59.545 52.4371 58.8895C53.2265 57.7966 54.5056 58.1109 54.5056 59.3977C54.5056 59.9047 54.5898 59.9951 54.9707 59.8967C55.5107 59.7577 56.1294 60.1858 56.1294 60.6985C56.1294 60.8934 55.9565 61.2408 55.7455 61.4708C55.4086 61.8379 55.4056 61.8891 55.7206 61.8891C56.2015 61.8891 56.4437 62.5585 56.0206 62.7183C55.6151 62.8718 55.2015 62.6468 55.2015 62.2728C55.2015 62.1214 54.9665 61.896 54.6796 61.7718C54.3926 61.6476 54.1228 61.3041 54.0804 61.0084C54.0182 60.5743 53.8939 60.4916 53.4353 60.578C53.0252 60.6553 52.741 60.527 52.414 60.117ZM58.646 62.9939C58.3458 62.9518 58.0698 62.7321 58.0248 62.4995C57.9621 62.1752 58.0658 62.0977 58.4841 62.1564C58.7842 62.1985 59.0603 62.4183 59.1053 62.6509C59.1679 62.9752 59.0642 63.0527 58.646 62.9939ZM53.9435 64.1001C53.4385 63.9089 53.1017 62.9983 53.401 62.6324C53.8417 62.0931 54.739 62.4174 54.7341 63.1142C54.7287 63.8268 54.378 64.2645 53.9435 64.1001ZM57.1869 66.2343C57.1305 66.2343 57.0201 66.1314 56.9413 66.0056C56.8624 65.8798 56.9086 65.7769 57.0436 65.7769C57.1786 65.7769 57.2892 65.8798 57.2892 66.0056C57.2892 66.1314 57.2433 66.2343 57.1869 66.2343ZM56.7981 67.6206C56.1528 67.9614 55.545 67.4255 55.7733 66.7173C55.9317 66.2251 56.2662 66.125 56.9222 66.3731C57.4486 66.5723 57.3746 67.3167 56.7981 67.6206Z" fill="black"/>
</svg>
