<svg width="56" height="76" viewBox="0 0 56 76" fill="none" xmlns="http://www.w3.org/2000/svg">
<path fill-rule="evenodd" clip-rule="evenodd" d="M35.9456 2.91309C36.067 2.93867 36.2292 2.88618 36.3905 2.72369C36.3916 2.72257 36.3927 2.72147 36.3938 2.72036H37.1652C38.5105 2.72036 38.9589 4.19388 39.015 4.93065V12.5817C39.015 13.3978 38.7908 14.1685 38.6787 14.4519C38.1181 16.1521 36.8961 19.7566 36.4925 20.5727C36.0889 21.3888 36.3243 22.3863 36.4925 22.783L37.7158 24.8444C37.3434 24.5967 36.9616 24.58 36.8205 24.9505C36.4639 25.8866 36.8303 27.3032 37.4603 27.4235C38.3289 27.5895 38.7773 27.003 38.5325 26.0208C38.5026 25.9006 38.4607 25.7846 38.4097 25.6743C38.9163 25.8782 39.6429 25.6746 40.024 25.5033C41.2012 24.9366 43.7574 23.7011 44.5646 23.2931C45.3718 22.885 45.7978 22.1029 45.9099 21.7629L47.017 16.5393C47.3973 16.5118 47.5495 16.3321 47.4837 15.9907C47.4404 15.7653 47.3517 15.5925 47.2419 15.4784L47.9279 12.2416C48.1522 12.4683 48.7015 13.0577 49.1051 13.6018C49.5087 14.1459 49.6096 14.8486 49.6096 15.132C49.3293 17.3989 48.7351 22.2389 48.6006 23.4631C48.4661 24.6872 47.7598 25.56 47.4234 25.8434C45.4054 27.2602 41.2685 30.162 40.8649 30.434C40.4613 30.706 40.2482 31.3408 40.1922 31.6241C39.5756 31.2274 37.9387 30.434 36.3243 30.434C32.7928 30.434 30.2703 34.5145 30.1021 36.5548C29.9339 38.5951 32.1201 42.3356 32.7928 43.1857C33.3309 43.8658 34.4745 44.4892 34.979 44.7159C34.9817 44.8252 34.9845 44.9373 34.9872 45.0518C34.4798 45.0942 33.9753 45.2518 33.7901 45.4383C33.2519 45.9804 33.2943 46.5885 33.9474 47.7022C34.2477 48.2143 34.6355 48.5674 35.0428 48.7605C35.0524 50.1873 35.0483 51.6756 35.0205 53.0297C34.8397 53.1036 34.7113 53.2827 34.7113 53.4905C34.7113 53.6894 34.8288 53.862 34.9974 53.9413C34.9792 54.5358 34.9554 55.0918 34.9251 55.5896C34.824 55.4258 34.7611 55.2825 34.7623 55.2027C34.7682 54.7892 34.5205 54.6215 34.2728 54.8714C33.9283 55.218 34.0161 56.5762 34.3981 56.8142C34.4961 56.8752 34.6477 56.9061 34.8111 56.9065C34.7275 57.5781 34.6175 57.9776 34.4745 57.9776C33.6336 57.9776 32.7928 58.3176 31.6156 58.9977C30.7694 59.4866 30.0971 60.5025 29.6609 61.1615C29.4903 61.4193 29.3558 61.6225 29.2612 61.7181C28.9249 62.0581 28.5886 62.3982 27.4114 62.3982H24.2162C24.6348 61.6928 24.8219 60.402 25.0656 58.7201L25.0657 58.7195C25.1157 58.3747 25.168 58.0135 25.2252 57.6376C25.5615 55.4273 26.066 55.0872 27.4114 54.4071C30.2366 52.7749 30.046 49.8732 29.5976 48.6264C29.5976 48.513 29.1603 47.5382 27.4114 44.5458C25.9705 42.0805 23.137 41.9848 21.2432 42.3762C20.7722 41.9842 19.9086 41.7737 19.2816 41.8525C17.4276 40.2022 13.4916 36.8291 12.9489 36.5548C12.4108 36.2828 9.92188 33.9478 8.7447 32.8143C7.06302 31.0007 3.43058 27.1696 2.3543 26.3535C1.27802 25.5374 1.56951 24.0865 1.84979 23.4631L3.40212 17.1853C4.1812 17.0924 4.82297 16.4325 4.95669 15.5937C6.34477 16.319 6.72668 18.1935 6.72668 19.2125V22.4429C6.72668 23.8031 7.06301 24.2565 7.23118 24.3132L10.9309 28.0537C11.7381 28.8698 12.8368 28.3937 13.2852 28.0537C13.6776 27.4869 14.6642 26.2174 15.4714 25.6734C16.2786 25.1293 16.032 23.6331 15.8078 22.953C15.023 19.5526 13.4534 12.6497 13.4534 12.2416V11.3915V3.0604L14.7988 1.87025L16.3061 3.39416C15.3639 3.9683 15.1966 4.77519 15.7641 5.88062C16.0219 6.38277 16.3893 6.7435 16.8333 6.94864C16.7312 7.3365 16.6058 7.69527 16.4804 7.99105C16.0768 8.94317 16.2002 10.2013 16.3123 10.7114C16.4296 11.1038 16.5667 11.5639 16.7148 12.0624C16.6741 12.1653 16.6617 12.2411 16.6893 12.2965C16.7087 12.3354 16.7478 12.3643 16.8106 12.3853C17.5716 14.9519 18.5584 18.3252 18.6666 18.8725C18.7173 19.1286 18.8291 19.4311 19.0203 19.7753C18.9247 19.6377 18.8182 19.4906 18.7 19.3322C17.9137 18.2771 17.5123 18.1399 16.4132 18.5495C15.316 18.958 14.8834 19.7016 15.4614 20.1848C15.8151 20.4803 15.9589 20.4906 15.9589 20.2206C15.9589 20.0115 16.3546 19.6887 16.8382 19.5035C17.9354 19.0833 18.6612 19.6801 18.3783 20.77C18.1703 21.5699 17.7755 21.7303 17.4245 21.158C17.2893 20.9376 17.0113 21.0821 16.6945 21.5377C16.2299 22.2061 16.2319 22.3098 16.7162 22.6664C17.5212 23.2592 19.2527 22.8854 19.5603 22.052C19.7815 21.4526 19.7624 21.0142 19.3737 20.3286C19.8747 21.0268 20.6675 21.8541 21.8618 22.783C23.6108 24.1432 24.1601 22.6696 24.2162 21.7629L24.3302 9.08854C24.5978 9.1207 24.8927 9.07139 25.1904 8.91098C26.1934 8.37019 25.9474 6.80115 24.8393 6.67059C24.683 6.6522 24.5146 6.65696 24.3518 6.68037L24.3844 3.0604L26.4024 0C27.8823 0 28.028 1.81357 27.9159 2.72036C27.8037 4.47903 27.654 6.85103 27.5044 9.26662C27.3113 9.29529 27.0527 9.46235 26.8155 9.75C26.3711 10.2895 26.4773 10.3571 27.282 10.0459C27.3451 10.0215 27.4056 9.9917 27.4616 9.95823C27.1777 14.5577 26.9069 19.1184 26.9069 19.7226C26.9069 20.6747 27.2432 21.2528 27.4114 21.4228C27.6356 21.6495 28.4204 22.4769 29.7657 23.9731C31.1111 25.4693 32.1201 23.9165 32.4564 22.953C33.4655 20.2327 35.5844 14.5539 35.988 13.6018C36.3916 12.6497 36.2683 11.7315 36.1561 11.3915C35.988 10.5981 35.5844 8.80716 35.3153 7.99105C35.0462 7.17494 35.2032 6.17748 35.3153 5.78076L35.9456 2.91309ZM35.0221 46.872C35.0269 47.1911 35.0312 47.5189 35.0348 47.8526C34.7938 47.6538 34.6998 47.3157 34.8758 47.0289C34.9128 46.9686 34.9629 46.9162 35.0221 46.872ZM37.0336 7.26474C36.8632 7.26474 36.6326 7.11563 36.5208 6.93337C36.4089 6.75112 36.5484 6.60201 36.8304 6.60201C37.1123 6.60201 37.3432 6.75112 37.3432 6.93337C37.3432 7.11563 37.2041 7.26474 37.0336 7.26474ZM14.4978 10.2471C13.9165 10.2471 13.5451 9.70162 13.8204 9.25295C14.178 8.66974 14.9719 8.89839 14.9719 9.58432C14.9719 9.94882 14.7587 10.2471 14.4978 10.2471ZM46.2918 24.4296C45.866 24.0008 45.7588 22.7572 46.1164 22.3973C46.4395 22.0719 46.6043 22.1186 47.2692 22.7247C48.0664 23.4514 48.0726 24.8272 47.2787 24.8272C46.953 24.8272 46.5089 24.6483 46.2918 24.4296ZM36.0273 23.1704C35.8463 23.1704 35.6983 23.0213 35.6983 22.839C35.6983 22.6568 35.8463 22.5077 36.0273 22.5077C36.2082 22.5077 36.3563 22.6568 36.3563 22.839C36.3563 23.0213 36.2082 23.1704 36.0273 23.1704ZM20.4242 27.6796C19.6103 27.4739 19.2748 26.5682 19.8123 26.0271C20.2683 25.5678 21.7089 25.9791 21.8264 26.602C21.9919 27.4795 21.4079 27.9282 20.4242 27.6796ZM18.4148 33.9017C17.2837 33.1555 17.2383 30.8001 18.344 30.2484C19.5021 29.6708 20.0673 29.7388 20.7987 30.5433C21.8652 31.717 21.9794 32.5643 21.2046 33.5565C20.4173 34.5645 19.5768 34.6685 18.4148 33.9017ZM38.0339 36.605C36.8708 36.1761 36.2666 34.5746 37.2021 33.632C37.3749 33.4581 37.5017 33.331 37.618 33.2517C36.9708 33.0863 36.2567 33.0866 35.6516 33.4944C34.4408 34.3105 33.6897 34.9679 33.4655 35.1946C33.1852 35.4779 32.7928 36.4187 33.4655 37.9149C33.7259 38.4941 33.9056 39.0407 34.0697 39.5396C34.4353 40.6514 34.7229 41.526 35.6516 41.9955L38.0339 36.605ZM46.555 37.5849C46.2885 37.5849 46.0207 37.3238 45.9595 37.005C45.8818 36.5981 46.0595 36.4251 46.555 36.4251C47.0504 36.4251 47.2281 36.5981 47.1505 37.005C47.0893 37.3238 46.8214 37.5849 46.555 37.5849ZM5.48194 41.092C5.912 41.9952 6.08401 42.8301 5.96413 43.4332C5.74371 44.5436 6.1997 45.9185 7.11528 46.903C7.76767 47.6045 7.76732 47.6055 7.0646 47.7907C6.61881 47.908 6.40135 48.187 6.47175 48.5518C6.63757 49.4134 7.42187 49.5214 7.6321 48.7112C7.82521 47.9673 8.65265 48.0057 9.70805 48.8076C9.75684 48.8447 9.80613 48.8808 9.85588 48.9158C10.1375 50.4336 9.84637 52.3668 7.23124 52.3668C6.74708 52.3668 6.30476 52.3592 5.90168 52.3456C5.92637 52.3279 5.95137 52.3085 5.97662 52.2874C6.61421 51.7542 6.51914 51.3367 5.76016 51.3367C5.39827 51.3367 5.10218 51.5355 5.10218 51.7784C5.10218 52.0138 5.14778 52.1951 5.22721 52.3157C3.41156 52.2142 2.56776 51.9862 2.35436 51.8568C1.56957 51.6867 0 50.8706 0 48.9664V44.0357C0 41.6554 1.34535 40.2952 3.02703 40.4653C3.75195 40.5386 4.63311 40.7066 5.48194 41.092ZM18.6842 51.7687L19.6757 45.566L22.7027 45.2259C23.4315 45.1126 25.0571 45.2599 25.7298 46.7561C26.4024 48.2523 26.6827 48.8531 26.7388 48.9664C27.0751 49.7032 27.3778 51.3467 25.8979 52.0268C24.0481 52.8769 22.7027 54.2371 22.3664 56.7874C22.3348 57.027 22.3047 57.2711 22.2744 57.5167L22.2743 57.5172C21.9821 59.8861 21.6722 62.3982 19.8439 62.3982L16.985 62.3982L18.6241 52.1443C18.6777 52.2545 18.7903 52.3308 18.9198 52.3308C19.1007 52.3308 19.2488 52.1816 19.2488 51.9994C19.2488 51.8171 19.1007 51.668 18.9198 51.668C18.8276 51.668 18.744 51.7067 18.6842 51.7687ZM34.1313 54.1672C33.9428 55.1593 33.2766 55.0781 33.1256 54.0446C33.0489 53.5177 33.191 53.3249 33.6559 53.3249C34.1589 53.3249 34.2577 53.5001 34.1313 54.1672ZM51.8313 55.6511C51.1894 55.3051 50.9131 54.0161 51.3803 53.5459C51.5007 53.4243 51.9399 53.3249 52.3554 53.3249C53.1114 53.3249 53.7928 54.1679 53.7928 55.1033C53.7928 55.7767 52.6541 56.0948 51.8313 55.6511ZM49.8255 56.9699C49.6551 56.9699 49.5159 56.8208 49.5159 56.6385C49.5159 56.4563 49.7468 56.3072 50.0288 56.3072C50.3107 56.3072 50.4502 56.4563 50.3384 56.6385C50.2265 56.8208 49.9959 56.9699 49.8255 56.9699ZM53.7734 59.2895C53.6029 59.2895 53.4638 59.1404 53.4638 58.9581C53.4638 58.7759 53.6947 58.6267 53.9767 58.6267C54.2586 58.6267 54.3981 58.7759 54.2862 58.9581C54.1744 59.1404 53.9438 59.2895 53.7734 59.2895ZM49.5159 61.1395C49.5159 61.7247 48.8076 61.623 48.6043 61.0086C48.5325 60.7919 48.7085 60.615 48.9951 60.615C49.2813 60.615 49.5159 60.8509 49.5159 61.1395ZM14.1751 68.2028C14.1929 68.208 14.2107 68.2132 14.2287 68.2182C15.9279 68.6934 16.275 68.6586 16.5227 67.9879C16.6405 67.6691 17.0248 67.0104 17.3765 66.5242C17.6294 66.1748 17.7834 65.7881 17.8439 65.3896C18.3063 65.3147 18.7331 65.2886 19.003 65.2886H21.5629C21.3653 65.3285 21.1607 65.449 20.9595 65.6517C20.3834 66.232 20.4759 66.8397 21.2 67.23C22.1028 67.7168 23.0098 66.8033 22.5265 65.894C22.3416 65.5461 22.1077 65.3429 21.851 65.2886H24.2162C24.7174 65.2886 25.1725 65.2979 25.5929 65.3065C26.3782 65.3226 27.0427 65.3362 27.6608 65.282C27.5696 65.3334 27.5551 65.4503 27.638 65.5855C27.7499 65.7677 27.9065 65.9168 27.9864 65.9168C28.0664 65.9168 28.1315 65.7677 28.1315 65.5855C28.1315 65.4279 28.0142 65.2951 27.8588 65.262C28.1197 65.2322 28.3736 65.1886 28.6263 65.1262C28.4996 65.5001 28.5649 65.7626 28.8243 66.1809C29.6389 67.4948 31.6619 67.3215 32.4321 65.8721C32.77 65.2365 32.7212 65.0483 32.0866 64.5307C31.7437 64.251 31.3419 64.069 30.9364 63.9817C31.6693 63.436 32.1669 62.8353 32.6186 62.2901C33.421 61.3216 34.0785 60.528 35.6517 60.528C37.2726 60.528 38.0603 61.4406 38.6839 62.6343C38.3513 62.5934 37.9995 62.7061 37.7505 63.0174C37.3261 63.5476 37.8038 64.8671 38.52 65.1441C38.9689 65.3176 39.3547 65.0283 39.5341 64.4592C39.5842 64.5659 39.6353 64.6724 39.6877 64.7785C39.976 65.3613 40.223 66.0829 40.4877 66.856L40.4878 66.8562L40.4879 66.8564L40.4879 66.8565C40.6985 67.4716 40.9202 68.1193 41.1828 68.7557C41.1581 68.8112 41.1355 68.8714 41.1151 68.9363C40.8603 69.7439 41.3399 70.3968 42.0019 70.3976C42.4511 71.1261 43.0057 71.7755 43.7238 72.2595C45.5468 73.4883 45.9645 73.4738 47.0716 73.4355H47.0716H47.0717C47.4965 73.4207 48.0228 73.4025 48.7688 73.4497C50.9214 73.5857 51.6838 75.2066 51.7959 76H47.1895C47.4356 75.8239 47.5688 75.3987 47.4876 74.8227C47.359 73.9107 46.6316 73.695 45.8147 74.3263C45.1966 74.8039 45.0591 75.6613 45.5327 76H24.4134C24.354 75.9122 24.2728 75.8579 24.1836 75.8579C24.0945 75.8579 24.0133 75.9122 23.9539 76H17.7681C17.8905 75.6777 17.9999 75.3109 18.0855 74.9184C18.2582 74.1261 18.1536 73.8309 17.5499 73.4047C17.2147 73.1684 17.0331 73.0185 16.8283 72.9707C16.4882 72.8914 16.0839 73.0937 14.8061 73.65C12.3817 74.7054 12.2503 74.8013 12.4372 76H1.34534C1.76749 75.1852 2.63628 73.701 3.574 72.5404C4.08796 72.4948 4.42161 72.0507 4.37951 71.6539C4.5472 71.4949 4.71369 71.3549 4.87688 71.2394C5.77347 70.6048 6.71787 70.6469 7.81201 70.6957C8.77008 70.7383 9.84296 70.7861 11.0991 70.3893C12.4015 69.9778 13.3887 69.0883 14.1751 68.2028ZM45.856 76H46.5935C46.5317 75.9664 46.4685 75.9231 46.4043 75.8695C46.0325 75.5586 45.897 75.55 45.897 75.837C45.897 75.9052 45.8821 75.9602 45.856 76ZM44.8431 62.313C44.3783 61.3722 44.3244 60.7401 44.3964 59.8479C44.3964 59.4511 44.4636 58.4877 44.7327 57.8076C45.0018 57.1275 47.1992 54.3505 48.2643 53.047C48.6006 52.5936 49.576 51.6868 50.7868 51.6868C52.3003 51.6868 52.8048 52.1968 53.3093 52.8769C53.7129 53.421 54.9349 55.4839 55.4955 56.4474C55.6637 56.7308 56 57.4675 56 58.1476C56 58.9977 55.6637 59.6778 54.8228 60.5279L52.3003 63.0783C52.02 63.3616 51.1904 63.9284 50.1141 63.9284H47.4234C47.051 63.9284 46.3719 63.8234 45.8002 63.4737C45.873 63.3922 45.8803 63.2538 45.8407 63.0442C45.7769 62.7072 45.3854 62.3888 44.9597 62.3278C44.9187 62.3219 44.8799 62.317 44.8431 62.313ZM30.4687 70.3227C30.0462 70.7482 29.6182 70.4195 29.9308 69.9098C30.0518 69.7126 30.3015 69.6451 30.4858 69.7597C30.7105 69.8995 30.7049 70.0848 30.4687 70.3227ZM21.5362 71.8897C20.6897 72.346 20.038 71.8841 20.3552 71.052C20.4799 70.7246 20.8457 70.5517 21.2776 70.6156C22.2623 70.7614 22.3972 71.4255 21.5362 71.8897ZM41.9738 73.4747C41.7793 73.5399 41.6201 73.3451 41.6201 73.0412C41.6201 72.7374 41.7793 72.5425 41.9738 72.6078C42.1682 72.6731 42.3274 72.8679 42.3274 73.0412C42.3274 73.2145 42.1682 73.4094 41.9738 73.4747ZM15.7559 75.5265C15.6868 75.5265 15.6299 75.1537 15.6299 74.6981C15.6299 74.2424 15.7575 73.8697 15.9131 73.8697C16.0691 73.8697 16.126 74.2424 16.0395 74.6981C15.9529 75.1537 15.8253 75.5265 15.7559 75.5265ZM45.9759 33.9346L45.976 33.9345C46.0112 33.9006 46.0455 33.8675 46.0781 33.8345C46.4145 33.4945 48.937 32.1343 50.7868 32.1343C52.6367 32.1343 53.6457 33.3244 53.6457 35.1947V37.745C53.6457 38.4251 53.2085 39.9213 51.4595 40.4654C49.8278 40.973 48.9455 40.2493 48.1135 39.5667C47.8308 39.3348 47.5538 39.1077 47.2553 38.9352C46.0781 38.2551 45.2373 37.575 45.2373 35.8748C45.2373 34.6468 45.6485 34.2503 45.9759 33.9346Z" fill="black"/>
</svg>
