<svg viewBox="0 0 138 50" fill="none" xmlns="http://www.w3.org/2000/svg">
<rect width="138" height="50" rx="7.58077" fill="#090909"/>
<path d="M29.6341 25.8726C29.6613 23.7507 30.7964 21.7429 32.5971 20.6315C31.4611 19.0027 29.5584 17.9701 27.5788 17.9079C25.4673 17.6854 23.4204 19.1763 22.3444 19.1763C21.2477 19.1763 19.5911 17.93 17.8072 17.9668C15.482 18.0422 13.3143 19.3694 12.1831 21.4102C9.75132 25.6368 11.5652 31.8486 13.8946 35.2651C15.0601 36.938 16.4222 38.8068 18.2044 38.7405C19.9485 38.6679 20.5999 37.624 22.7051 37.624C24.7908 37.624 25.4019 38.7405 27.2203 38.6984C29.0918 38.6679 30.2709 37.018 31.3954 35.3292C32.2328 34.1371 32.8772 32.8196 33.3046 31.4256C31.1053 30.4917 29.6366 28.2698 29.6341 25.8726Z" fill="white"/>
<path d="M26.1994 15.661C27.2197 14.4313 27.7225 12.8507 27.6007 11.2549C26.0418 11.4193 24.6018 12.1672 23.5676 13.3498C22.5563 14.5052 22.03 16.058 22.1295 17.5928C23.689 17.6089 25.2221 16.8812 26.1994 15.661Z" fill="white"/>
<path d="M91.8375 23.6811V26.2523H90.232V27.9386H91.8375V33.668C91.8375 35.6244 92.7191 36.407 94.937 36.407C95.3267 36.407 95.6979 36.3604 96.0227 36.3045V34.6369C95.7443 34.6649 95.568 34.6835 95.2618 34.6835C94.2688 34.6835 93.8327 34.2177 93.8327 33.1557V27.9386H96.0227V26.2523H93.8327V23.6811H91.8375Z" fill="white"/>
<path d="M101.673 36.5468C104.624 36.5468 106.433 34.5624 106.433 31.2738C106.433 28.0038 104.615 26.0101 101.673 26.0101C98.7217 26.0101 96.9028 28.0038 96.9028 31.2738C96.9028 34.5624 98.7124 36.5468 101.673 36.5468ZM101.673 34.7674C99.9374 34.7674 98.963 33.491 98.963 31.2738C98.963 29.0752 99.9374 27.7895 101.673 27.7895C103.399 27.7895 104.383 29.0752 104.383 31.2738C104.383 33.4817 103.399 34.7674 101.673 34.7674Z" fill="white"/>
<path d="M107.982 36.3511H109.977V30.3608C109.977 28.9354 111.044 27.9758 112.557 27.9758C112.909 27.9758 113.503 28.0411 113.67 28.097V26.1219C113.457 26.066 113.076 26.0381 112.779 26.0381C111.462 26.0381 110.339 26.7647 110.051 27.7616H109.903V26.2058H107.982V36.3511Z" fill="white"/>
<path d="M118.624 27.715C120.1 27.715 121.065 28.7491 121.111 30.3422H116.007C116.119 28.7584 117.149 27.715 118.624 27.715ZM121.102 33.6121C120.731 34.404 119.905 34.8419 118.699 34.8419C117.102 34.8419 116.072 33.7146 116.007 31.9352V31.8234H123.144V31.1247C123.144 27.9386 121.445 26.0101 118.634 26.0101C115.785 26.0101 113.975 28.069 113.975 31.311C113.975 34.5531 115.748 36.5468 118.643 36.5468C120.954 36.5468 122.568 35.4288 123.023 33.6121H121.102Z" fill="white"/>
<path d="M78.7533 32.6046C78.9072 35.0958 80.9751 36.6891 84.053 36.6891C87.3425 36.6891 89.4009 35.0186 89.4009 32.3535C89.4009 30.2582 88.2274 29.0995 85.3804 28.4332L83.851 28.0566C82.0428 27.6318 81.3118 27.0621 81.3118 26.0675C81.3118 24.8122 82.4468 23.9915 84.1492 23.9915C85.7651 23.9915 86.8808 24.7929 87.0828 26.0772H89.1796C89.0546 23.7308 86.9963 22.0796 84.1781 22.0796C81.1483 22.0796 79.1284 23.7308 79.1284 26.2123C79.1284 28.2594 80.273 29.4761 82.7834 30.0651L84.5724 30.4996C86.4095 30.9341 87.2175 31.5714 87.2175 32.6336C87.2175 33.8695 85.9479 34.7675 84.2165 34.7675C82.3602 34.7675 81.0713 33.9275 80.8886 32.6046H78.7533Z" fill="white"/>
<path d="M58.0851 26.0381C56.7117 26.0381 55.5238 26.7275 54.9113 27.8827H54.7629V26.2058H52.8419V39.7236H54.8371V34.8139H54.9949C55.5238 35.8853 56.6653 36.5188 58.1037 36.5188C60.6557 36.5188 62.2796 34.4972 62.2796 31.2738C62.2796 28.0504 60.6557 26.0381 58.0851 26.0381ZM57.519 34.7208C55.8486 34.7208 54.8 33.3979 54.8 31.2831C54.8 29.159 55.8486 27.8361 57.5283 27.8361C59.2173 27.8361 60.2288 29.1311 60.2288 31.2738C60.2288 33.4258 59.2173 34.7208 57.519 34.7208Z" fill="white"/>
<path d="M69.2612 26.0381C67.8877 26.0381 66.6999 26.7275 66.0874 27.8827H65.9389V26.2058H64.018V39.7236H66.0132V34.8139H66.1709C66.6999 35.8853 67.8413 36.5188 69.2797 36.5188C71.8317 36.5188 73.4557 34.4972 73.4557 31.2738C73.4557 28.0504 71.8317 26.0381 69.2612 26.0381ZM68.6951 34.7208C67.0247 34.7208 65.976 33.3979 65.976 31.2831C65.976 29.159 67.0247 27.8361 68.7044 27.8361C70.3933 27.8361 71.4048 29.1311 71.4048 31.2738C71.4048 33.4258 70.3933 34.7208 68.6951 34.7208Z" fill="white"/>
<path d="M49.2622 36.3511H51.5514L46.5402 22.4175H44.2221L39.2109 36.3511H41.4232L42.7024 32.6529H47.9926L49.2622 36.3511ZM45.2705 24.9474H45.4341L47.4443 30.8376H43.2507L45.2705 24.9474Z" fill="white"/>
<path d="M39.1558 12.5896V18.0972H41.1366C42.7714 18.0972 43.7181 17.0857 43.7181 15.3262C43.7181 13.5934 42.7638 12.5896 41.1366 12.5896H39.1558ZM40.0074 13.3682H41.0415C42.1783 13.3682 42.8512 14.0934 42.8512 15.3377C42.8512 16.601 42.1897 17.3186 41.0415 17.3186H40.0074V13.3682Z" fill="white"/>
<path d="M46.6174 18.1773C47.8264 18.1773 48.5678 17.3644 48.5678 16.017C48.5678 14.6774 47.8226 13.8606 46.6174 13.8606C45.4084 13.8606 44.6632 14.6774 44.6632 16.017C44.6632 17.3644 45.4046 18.1773 46.6174 18.1773ZM46.6174 17.4483C45.9064 17.4483 45.5072 16.9254 45.5072 16.017C45.5072 15.1163 45.9064 14.5896 46.6174 14.5896C47.3246 14.5896 47.7276 15.1163 47.7276 16.017C47.7276 16.9216 47.3246 17.4483 46.6174 17.4483Z" fill="white"/>
<path d="M54.8812 13.9407H54.0638L53.3263 17.1124H53.2616L52.41 13.9407H51.6268L50.7752 17.1124H50.7143L49.973 13.9407H49.1442L50.2847 18.0972H51.125L51.9766 15.0361H52.0412L52.8966 18.0972H53.7445L54.8812 13.9407Z" fill="white"/>
<path d="M55.8226 18.0972H56.64V15.6659C56.64 15.0171 57.024 14.6125 57.6285 14.6125C58.233 14.6125 58.522 14.9445 58.522 15.6125V18.0972H59.3394V15.4064C59.3394 14.4178 58.8299 13.8606 57.9061 13.8606C57.2825 13.8606 56.8719 14.1392 56.6704 14.601H56.6096V13.9407H55.8226V18.0972Z" fill="white"/>
<path d="M60.6267 18.0972H61.4441V12.3186H60.6267V18.0972Z" fill="white"/>
<path d="M64.5183 18.1773C65.7274 18.1773 66.4687 17.3644 66.4687 16.017C66.4687 14.6774 65.7236 13.8606 64.5183 13.8606C63.3093 13.8606 62.5642 14.6774 62.5642 16.017C62.5642 17.3644 63.3055 18.1773 64.5183 18.1773ZM64.5183 17.4483C63.8074 17.4483 63.4082 16.9254 63.4082 16.017C63.4082 15.1163 63.8074 14.5896 64.5183 14.5896C65.2255 14.5896 65.6285 15.1163 65.6285 16.017C65.6285 16.9216 65.2255 17.4483 64.5183 17.4483Z" fill="white"/>
<path d="M68.9042 17.475C68.4594 17.475 68.1363 17.2575 68.1363 16.8834C68.1363 16.517 68.3948 16.3224 68.9651 16.2842L69.9764 16.2193V16.5667C69.9764 17.0819 69.5201 17.475 68.9042 17.475ZM68.6951 18.1659C69.2388 18.1659 69.6912 17.9292 69.9384 17.5132H70.003V18.0972H70.79V15.2575C70.79 14.3797 70.2045 13.8606 69.1666 13.8606C68.2275 13.8606 67.5584 14.3186 67.4747 15.0323H68.2655C68.3568 14.7384 68.6723 14.5705 69.1285 14.5705C69.6874 14.5705 69.9764 14.8186 69.9764 15.2575V15.6163L68.8548 15.6812C67.8701 15.7422 67.315 16.1735 67.315 16.9216C67.315 17.6811 67.8967 18.1659 68.6951 18.1659Z" fill="white"/>
<path d="M73.5639 18.1659C74.1342 18.1659 74.617 17.8949 74.8641 17.4407H74.9288V18.0972H75.7119V12.3186H74.8945V14.601H74.8337C74.6094 14.143 74.1304 13.872 73.5639 13.872C72.5183 13.872 71.8454 14.7041 71.8454 16.017C71.8454 17.3338 72.5107 18.1659 73.5639 18.1659ZM73.7958 14.6087C74.4801 14.6087 74.9097 15.1545 74.9097 16.0209C74.9097 16.8911 74.4839 17.4292 73.7958 17.4292C73.1038 17.4292 72.6894 16.8987 72.6894 16.017C72.6894 15.143 73.1076 14.6087 73.7958 14.6087Z" fill="white"/>
<path d="M81.0126 18.1773C82.2216 18.1773 82.963 17.3644 82.963 16.017C82.963 14.6774 82.2178 13.8606 81.0126 13.8606C79.8036 13.8606 79.0584 14.6774 79.0584 16.017C79.0584 17.3644 79.7998 18.1773 81.0126 18.1773ZM81.0126 17.4483C80.3016 17.4483 79.9024 16.9254 79.9024 16.017C79.9024 15.1163 80.3016 14.5896 81.0126 14.5896C81.7197 14.5896 82.1227 15.1163 82.1227 16.017C82.1227 16.9216 81.7197 17.4483 81.0126 17.4483Z" fill="white"/>
<path d="M84.045 18.0972H84.8624V15.6659C84.8624 15.0171 85.2464 14.6125 85.8509 14.6125C86.4554 14.6125 86.7444 14.9445 86.7444 15.6125V18.0972H87.5618V15.4064C87.5618 14.4178 87.0523 13.8606 86.1284 13.8606C85.5049 13.8606 85.0943 14.1392 84.8928 14.601H84.832V13.9407H84.045V18.0972Z" fill="white"/>
<path d="M91.3264 12.9064V13.9598H90.6687V14.6506H91.3264V16.9979C91.3264 17.7995 91.6876 18.1201 92.5963 18.1201C92.7559 18.1201 92.908 18.101 93.0411 18.0781V17.3949C92.927 17.4063 92.8548 17.414 92.7293 17.414C92.3225 17.414 92.1438 17.2231 92.1438 16.788V14.6506H93.0411V13.9598H92.1438V12.9064H91.3264Z" fill="white"/>
<path d="M94.1383 18.0972H94.9557V15.6697C94.9557 15.04 95.3283 14.6163 95.9975 14.6163C96.5753 14.6163 96.8833 14.9522 96.8833 15.6163V18.0972H97.7007V15.414C97.7007 14.4255 97.157 13.8644 96.275 13.8644C95.6515 13.8644 95.2143 14.143 95.0128 14.6087H94.9481V12.3186H94.1383V18.0972Z" fill="white"/>
<path d="M100.649 14.559C101.254 14.559 101.649 14.9827 101.668 15.6354H99.5773C99.623 14.9865 100.045 14.559 100.649 14.559ZM101.665 16.975C101.513 17.2995 101.174 17.4789 100.68 17.4789C100.026 17.4789 99.604 17.017 99.5773 16.288V16.2422H102.501V15.956C102.501 14.6506 101.805 13.8606 100.653 13.8606C99.4861 13.8606 98.7447 14.7041 98.7447 16.0323C98.7447 17.3605 99.4709 18.1773 100.657 18.1773C101.604 18.1773 102.265 17.7193 102.452 16.975H101.665Z" fill="white"/>
</svg>
