<svg width="20" height="20" viewBox="0 0 20 20" fill="none" xmlns="http://www.w3.org/2000/svg">
    <path fill-rule="evenodd" clip-rule="evenodd" d="M10 18.4615C14.6732 18.4615 18.4615 14.6732 18.4615 10C18.4615 5.32682 14.6732 1.53846 10 1.53846C5.32682 1.53846 1.53846 5.32682 1.53846 10C1.53846 14.6732 5.32682 18.4615 10 18.4615ZM10 20C15.5228 20 20 15.5228 20 10C20 4.47715 15.5228 0 10 0C4.47715 0 0 4.47715 0 10C0 15.5228 4.47715 20 10 20Z" fill="white"/>
    <path fill-rule="evenodd" clip-rule="evenodd" d="M12.544 16.383C13.3211 14.829 13.8461 12.5744 13.8461 10C13.8461 7.42563 13.3211 5.17103 12.544 3.61695C11.721 1.97085 10.8686 1.53846 10.3845 1.53846C9.90047 1.53846 9.04808 1.97085 8.22503 3.61695C7.44799 5.17103 6.92298 7.42563 6.92298 10C6.92298 12.5744 7.44799 14.829 8.22503 16.383C9.04808 18.0291 9.90047 18.4615 10.3845 18.4615C10.8686 18.4615 11.721 18.0291 12.544 16.383ZM10.3845 20C13.1459 20 15.3845 15.5228 15.3845 10C15.3845 4.47715 13.1459 0 10.3845 0C7.6231 0 5.38452 4.47715 5.38452 10C5.38452 15.5228 7.6231 20 10.3845 20Z" fill="white"/>
    <path fill-rule="evenodd" clip-rule="evenodd" d="M20 10.7692H0V9.23071H20V10.7692Z" fill="white"/>
</svg>
