<svg width="20" height="21" viewBox="0 0 20 21" fill="none" xmlns="http://www.w3.org/2000/svg">
<path fill-rule="evenodd" clip-rule="evenodd" d="M10 18.9615C14.6732 18.9615 18.4615 15.1732 18.4615 10.5C18.4615 5.82682 14.6732 2.03846 10 2.03846C5.32682 2.03846 1.53846 5.82682 1.53846 10.5C1.53846 15.1732 5.32682 18.9615 10 18.9615ZM10 20.5C15.5228 20.5 20 16.0228 20 10.5C20 4.97715 15.5228 0.5 10 0.5C4.47715 0.5 0 4.97715 0 10.5C0 16.0228 4.47715 20.5 10 20.5Z" fill="#1B1B1B"/>
<path fill-rule="evenodd" clip-rule="evenodd" d="M12.5423 16.883C13.3193 15.329 13.8444 13.0744 13.8444 10.5C13.8444 7.92563 13.3193 5.67103 12.5423 4.11695C11.7193 2.47085 10.8669 2.03846 10.3828 2.03846C9.89876 2.03846 9.04637 2.47085 8.22332 4.11695C7.44628 5.67103 6.92127 7.92563 6.92127 10.5C6.92127 13.0744 7.44628 15.329 8.22332 16.883C9.04637 18.5291 9.89876 18.9615 10.3828 18.9615C10.8669 18.9615 11.7193 18.5291 12.5423 16.883ZM10.3828 20.5C13.1442 20.5 15.3828 16.0228 15.3828 10.5C15.3828 4.97715 13.1442 0.5 10.3828 0.5C7.62139 0.5 5.38281 4.97715 5.38281 10.5C5.38281 16.0228 7.62139 20.5 10.3828 20.5Z" fill="#1B1B1B"/>
<path fill-rule="evenodd" clip-rule="evenodd" d="M20 11.2694H0V9.73096H20V11.2694Z" fill="#1B1B1B"/>
</svg>
