<svg width="83" height="59" viewBox="0 0 83 59" fill="none" xmlns="http://www.w3.org/2000/svg">
<path fill-rule="evenodd" clip-rule="evenodd" d="M40.5906 1.25245C40.6861 1.0254 40.83 0.80989 41.0276 0.618127C41.3778 0.278157 41.9572 0 42.3153 0C43.1284 0 44.5296 1.32341 44.5296 2.09112C44.5296 2.9293 43.3532 4.01782 42.4478 4.01782C41.609 4.01782 40.9631 3.52582 40.6509 2.87853C40.984 2.79764 41.2398 2.44215 41.2398 1.94478C41.2398 1.4783 40.9489 1.22513 40.5906 1.25245ZM39.9263 9.51123C39.8663 9.44601 39.8599 9.32424 39.9516 9.17921C40.0126 9.08276 40.124 9.03554 40.2268 9.05307L40.9954 7.88111L39.977 7.36652C39.4166 7.08373 38.6459 6.56574 38.2645 6.21588L37.5704 5.57983L34.3085 10.5938C32.5142 13.3515 27.8982 20.4059 24.0508 26.2704C23.2276 27.5251 22.4335 28.7416 21.6931 29.8815C21.6948 29.8993 21.6957 29.918 21.6957 29.9376C21.6957 30.0809 21.5958 30.2026 21.4607 30.2393C20.0824 32.3634 18.9049 34.1992 18.0935 35.4878C18.2073 35.5225 18.2684 35.6018 18.2372 35.6934C18.1951 35.8167 18.0695 35.9178 17.9578 35.9178C17.92 35.9178 17.8806 35.9062 17.8435 35.8861C17.2746 36.7954 16.9388 37.3556 16.9143 37.4442C16.8258 37.7657 17.0213 38.0315 17.4412 38.161C17.8083 38.2741 18.5345 38.7142 19.0547 39.1395L20.0009 39.9121L20.0968 39.7652C20.0912 39.6951 20.1009 39.6322 20.1277 39.5898C20.1616 39.5362 20.2162 39.5009 20.2822 39.4815L21.6796 37.3419C21.8564 37.0713 22.1725 36.5884 22.6021 35.9323C22.5065 35.8358 22.4081 35.7042 22.329 35.5598C22.0778 35.101 22.0802 34.9962 22.3463 34.8273C22.646 34.6372 23.0695 34.6248 23.3833 34.7397C24.2503 33.4164 25.371 31.7064 26.641 29.7691C25.873 29.9429 25.2739 29.4593 25.7765 28.8674C26.0753 28.5157 26.1618 28.5138 26.8846 28.8417C26.992 28.8905 27.0834 28.9359 27.1591 28.9789C28.7011 26.6269 30.4308 23.9889 32.177 21.3266L36.939 14.066C36.3822 14.0205 35.917 13.9517 35.8695 13.9053C35.8174 13.8544 35.723 13.4958 35.66 13.1084C35.5572 12.4782 35.666 12.2776 36.6919 11.2039C37.3226 10.5437 37.979 10.0043 38.1507 10.0052C38.4128 10.0062 38.8598 10.2389 39.2539 10.5363L39.9263 9.51123ZM36.5686 12.4463C36.4945 12.5187 36.4339 12.4684 36.4339 12.3346C36.4339 12.0599 36.5507 12.0434 37.2325 12.2219C37.4954 12.2908 37.6577 12.4306 37.5932 12.5327C37.526 12.6394 37.3115 12.6323 37.0898 12.5164C36.8773 12.4054 36.643 12.3739 36.5686 12.4463ZM52.0417 15.222C51.5953 15.222 51.3366 14.7546 51.5218 14.2827C51.5593 14.1874 51.6745 14.1117 51.8229 14.0588C49.3237 13.8292 46.3114 13.9243 45.0701 14.3541C43.421 14.9253 41.535 16.236 40.5398 17.5026C39.5726 18.7336 38.3476 21.2994 38.607 21.551C38.7057 21.6468 40.1145 21.8347 41.7375 21.9688C42.4231 22.0254 43.0905 22.0878 43.7437 22.1569C43.7162 22.0539 43.7195 21.9343 43.7679 21.811C43.8386 21.6311 44.0195 21.4915 44.1701 21.5004C44.3843 21.5134 44.3858 21.5397 44.1767 21.6221C43.7854 21.7766 43.8512 22.1101 44.2728 22.1101C44.4845 22.1101 44.5508 22.1415 44.4868 22.2392C46.9005 22.5188 49.1356 22.8991 51.4019 23.4307C51.132 23.157 51.0703 22.7105 51.4375 22.3516C51.5836 22.2089 51.9439 22.1197 52.2385 22.1533C52.9579 22.2356 53.1176 23.2239 52.4664 23.5646C52.4023 23.5981 52.3384 23.6239 52.2753 23.6427C52.7188 23.7539 53.1645 23.8711 53.614 23.9947C53.884 23.7359 54.1623 23.7075 54.1623 23.9664C54.1623 24.0141 54.1294 24.0701 54.0754 24.1234C56.4288 24.7892 58.8981 25.6307 61.7018 26.7004C61.7355 26.6079 61.7954 26.5275 61.8842 26.4739C62.2337 26.2626 62.658 26.6426 62.6159 27.0517C64.2214 27.6667 65.6027 28.1475 66.1504 28.2872C66.1211 28.2172 66.166 28.0899 66.2568 27.8586C66.313 27.7154 66.4008 27.634 66.4955 27.6085C66.5212 27.1794 66.5362 26.5975 66.5343 25.9737C66.5327 25.4889 66.5011 25.0193 66.4388 24.5632C66.3746 24.5892 66.3373 24.5629 66.3373 24.4828C66.3373 24.4138 66.3589 24.331 66.3924 24.2588C66.2179 23.2259 65.8812 22.2626 65.3741 21.3488C65.38 22.3941 64.4454 23.2208 63.1017 22.5625C61.7117 21.8814 61.4363 20.3731 62.546 19.5185C62.9277 19.2244 63.2978 18.9827 63.3683 18.9815C63.4094 18.9807 63.5769 19.0727 63.8027 19.2155C63.129 18.493 61.5923 17.5289 59.8307 16.6391C59.8391 16.9184 59.6281 17.1268 59.247 17.0294C59.0214 16.9718 58.8695 16.9877 58.9095 17.0649C58.9359 17.1158 59.0157 17.2709 59.1126 17.4592C59.1623 17.5558 59.2164 17.6611 59.2702 17.7656C59.6099 18.4267 59.4499 18.9771 58.8751 19.1238C58.6307 19.1864 58.5105 19.3478 58.5786 19.5217C58.6419 19.6824 58.5936 19.8141 58.4714 19.8141C58.3494 19.8141 58.1869 20.007 58.1102 20.2426C57.9032 20.8799 57.3675 20.3555 57.3814 19.5294C57.3992 18.4728 57.127 17.518 56.8081 17.518C56.6451 17.518 56.5119 17.3648 56.5119 17.1774C56.5119 16.8979 56.6725 16.858 57.4086 16.9545C57.9017 17.019 58.1865 17.0002 58.041 16.9123C57.8469 16.795 57.8343 16.6055 57.9934 16.1961C58.0472 16.0578 58.1129 15.9462 58.1899 15.8615C56.7265 15.2121 55.2428 14.6702 54.0601 14.3946C53.7059 14.3121 53.3077 14.2407 52.8803 14.1804C52.8806 14.1842 52.8807 14.1881 52.8807 14.1921C52.8807 14.659 52.4222 15.222 52.0417 15.222ZM33.1603 15.8081C32.571 15.7257 32.4272 15.0189 32.927 14.6618C33.4298 14.3025 33.5832 14.3153 33.746 14.7296C33.9752 15.3132 33.6678 15.8791 33.1603 15.8081ZM61.3178 17.9355C61.1416 17.9355 60.9974 17.8416 60.9974 17.7268C60.9974 17.612 61.1416 17.518 61.3178 17.518C61.494 17.518 61.6382 17.612 61.6382 17.7268C61.6382 17.8416 61.494 17.9355 61.3178 17.9355ZM16.1952 19.205V14.8409C16.1952 12.1181 16.2308 9.89064 16.2747 9.89126C17.0636 9.903 25.9154 11.7852 26.1211 11.9849C26.2793 12.1385 26.3672 13.5008 26.3163 15.0121L26.2236 17.76L21.9369 18.5985C20.5552 18.8689 19.2085 19.1378 18.2496 19.3338C17.9944 19.2276 17.6794 19.1507 17.2858 19.089C16.7421 19.0035 16.5033 18.9959 16.1952 19.205ZM31.2416 19.4711C31.1604 19.3918 31.094 19.2489 31.094 19.153C31.094 19.0574 31.1924 18.9792 31.3129 18.9792C31.5933 18.9792 31.987 19.9819 31.9046 20.487C31.8035 21.1074 31.4156 20.9124 31.4018 20.2341C31.3947 19.8938 31.3225 19.5505 31.2416 19.4711ZM55.4379 19.6054C55.3311 19.6054 55.2989 19.4651 55.3661 19.2935C55.4336 19.1219 55.5763 19.0345 55.6833 19.0992C55.9074 19.2344 55.7276 19.6054 55.4379 19.6054ZM59.738 19.6672C59.4638 19.9352 59.1859 19.7281 59.3888 19.4071C59.4674 19.2829 59.6295 19.2403 59.7491 19.3125C59.895 19.4006 59.8914 19.5173 59.738 19.6672ZM46.3464 21.6557C45.8472 20.7123 46.2238 20.114 47.5408 19.7579C47.9366 19.6511 48.4625 19.9548 48.8023 20.4862C49.1695 21.0611 48.743 22.2408 48.112 22.3955C47.3445 22.5838 46.6931 22.3107 46.3464 21.6557ZM60.1556 22.5276C60.045 22.5276 59.8952 22.4337 59.8226 22.3189C59.75 22.2041 59.8406 22.1101 60.0236 22.1101C60.2067 22.1101 60.3566 22.2041 60.3566 22.3189C60.3566 22.4337 60.2662 22.5276 60.1556 22.5276ZM56.0973 23.5713C55.973 23.5713 55.8711 23.4773 55.8711 23.3625C55.8711 23.2477 55.9134 23.1538 55.9653 23.1538C56.0172 23.1538 56.1189 23.2477 56.1915 23.3625C56.2641 23.4773 56.2216 23.5713 56.0973 23.5713ZM37.2882 28.3721C36.6814 27.7791 36.7461 27.0295 37.4484 26.5175C38.2257 25.9508 38.4525 25.969 38.9936 26.6411C40.0562 27.9611 38.4923 29.5487 37.2882 28.3721ZM51.2254 28.5433C50.8311 28.5979 50.7448 28.5109 50.7448 28.059C50.7448 27.6071 50.8311 27.5201 51.2254 27.5747C51.5409 27.6186 51.706 27.7849 51.706 28.059C51.706 28.3331 51.5409 28.4994 51.2254 28.5433ZM14.752 31.528C14.7251 31.8334 14.962 32.1717 15.3185 32.4526L15.2674 32.5289C14.8978 33.0815 13.9943 34.4674 13.2595 35.6087C12.3538 37.0159 11.612 37.8031 10.9555 38.0534C7.3198 39.4397 5.20172 43.2631 5.99432 46.8462C5.68994 46.5356 4.83324 46.3814 4.53692 46.671C4.27036 46.9313 4.39339 47.1843 4.76825 47.1471C5.55727 47.0686 5.8437 47.1724 5.95157 47.5754C6.07075 48.0211 5.86314 48.0956 4.74476 48.0079C3.97816 47.9478 4.06765 48.3949 4.90196 48.7921C5.34047 49.0011 5.55706 49.0109 5.77728 48.8322C5.98256 48.6657 6.1979 48.2548 6.31121 47.9103C6.99677 49.7969 8.15438 51.221 9.68247 52.1063C9.65676 52.1302 9.63403 52.1572 9.61496 52.1873C9.4144 52.5046 9.93386 53.3873 10.4074 53.5343C10.9651 53.7073 11.2607 53.474 11.0272 53.045C10.9687 52.9376 10.9002 52.7911 10.8399 52.6477C11.7576 52.9845 12.7763 53.1589 13.88 53.1589C14.4244 53.1589 14.9451 53.1221 15.4417 53.0488C15.7388 53.2189 16.0756 53.2761 16.3437 53.1141C16.4365 53.0581 16.4988 52.9514 16.5325 52.8184C18.597 52.2408 20.1631 50.9323 21.1744 48.9259C21.1978 48.8794 21.2208 48.8327 21.2435 48.7859C21.2436 48.7859 21.2438 48.7859 21.244 48.7859C21.8271 48.7374 22.0828 48.5763 22.3865 48.0664C22.7588 47.4408 22.7601 47.3734 22.4106 46.6574C22.2993 46.4292 22.1858 46.258 22.0525 46.1378C22.0824 45.9169 22.1026 45.6972 22.1129 45.4799C22.1353 45.0061 22.1739 44.624 22.2648 44.2479C22.4662 44.5084 22.6426 44.4794 22.9346 44.194C23.4453 43.6949 23.1738 43.18 22.6527 43.2068C22.9371 42.6253 23.3737 41.9177 24.0505 40.8755C25.0705 39.3042 25.9842 38.0179 26.0807 38.0166C26.5076 38.012 27.6973 41.0179 28.0434 42.9756C28.2118 43.9292 28.2694 44.8888 28.2213 45.8394C28.1025 45.9297 27.9992 46.0678 27.9126 46.2535C27.689 46.7332 27.7104 46.8666 28.0669 47.2147C28.0699 47.2177 28.0729 47.2206 28.0759 47.2234C27.6508 49.8796 26.3977 52.4035 24.4302 54.4522C24.0073 54.4421 23.629 54.5522 23.5342 54.7938C23.4459 55.0185 23.4024 55.2334 23.4014 55.4297C21.5834 57.0104 19.6016 57.9871 17.0767 58.565C14.6856 59.1126 13.4393 59.1439 11.3548 58.6551C10.8713 58.2146 10.6927 58.1707 10.2149 58.3589C10.2147 58.359 10.2144 58.3591 10.2142 58.3592C9.61401 58.1879 9.06858 58.0037 8.55772 57.7955C8.66742 57.802 8.79819 57.8033 8.95579 57.8033C9.80954 57.8033 9.88857 57.7526 10.2361 56.983C10.5855 56.2092 10.6488 56.1691 11.35 56.2804C12.1681 56.4102 12.9383 55.936 12.9383 55.3025C12.9383 54.985 12.0771 54.0071 11.8567 54.0745C11.8054 54.0901 11.5397 54.1446 11.2658 54.1956C10.9508 54.2542 10.6872 54.5151 10.5477 54.9063C10.3326 55.5091 10.3138 55.516 9.79758 55.1854C9.36612 54.9092 9.15785 54.8909 8.67448 55.0864C7.86538 55.4139 7.56785 56.1119 7.83441 57.0558C7.90062 57.2901 7.95137 57.4512 8.02086 57.5618C6.63943 56.9202 5.47645 56.0537 4.0763 54.7067C4.03118 54.6632 3.98682 54.6203 3.94319 54.5779C4.45815 53.8954 5.03524 52.7576 5.03524 52.2848C5.03524 52.0698 5.23538 51.9565 5.62263 51.9521C6.43643 51.9429 7.00717 51.4718 6.9213 50.8799C6.82433 50.2111 5.86677 50.1063 5.2986 50.7024L4.88146 51.1397L4.54718 50.6413C3.95809 49.7625 2.32001 49.2265 0.736625 49.3941C0.720364 49.3958 0.704288 49.3977 0.688389 49.3996C-1.62893 42.1621 2.05478 34.8012 9.47544 32.2582C10.8797 31.777 12.3035 31.5353 13.759 31.5309L14.752 31.528ZM45.2073 28.7495C45.0811 28.7906 44.9777 28.6679 44.9777 28.4765C44.9777 28.2851 45.0811 28.1623 45.2073 28.2034C45.3335 28.2446 45.4369 28.3673 45.4369 28.4765C45.4369 28.5856 45.3335 28.7084 45.2073 28.7495ZM35.2789 28.4755C34.3818 26.2104 34.1758 25.383 34.3572 25.1707C34.6756 24.7986 34.8249 24.802 35.4021 25.1942C35.836 25.4894 36.8423 25.6523 38.2333 25.6523H40.3908V28.8866C40.3908 32.0397 40.4147 32.1475 41.3459 33.177C42.1437 34.0591 42.301 34.4964 42.301 35.8303C42.301 37.5416 42.7868 38.7429 43.8604 39.6859C44.399 40.1594 44.5296 40.6362 44.5296 42.1334C44.5296 42.2259 44.5304 42.3155 44.532 42.4024C44.4009 42.3654 44.2831 42.345 44.181 42.3425C43.8555 42.3344 43.3971 42.2532 43.1621 42.1618C42.9272 42.0705 42.503 42.0806 42.2195 42.1843C41.8906 42.3045 41.624 42.2943 41.4826 42.1561C41.3949 42.0704 41.2114 42.0113 40.9916 41.9818C40.2128 40.1459 39.0495 37.4193 37.8044 34.514C36.7099 31.9603 35.9174 30.0754 35.3657 28.6938C35.3658 28.6909 35.3659 28.6881 35.3659 28.6852C35.3659 28.599 35.3326 28.528 35.2789 28.4755ZM44.2279 49.3243L44.3949 49.8365C44.4252 49.9294 44.4695 50.0531 44.5239 50.1975C44.5985 50.1277 44.687 50.0802 44.7538 50.0802C45.0379 50.0802 45.1951 50.6795 44.9497 50.8277C44.8982 50.8587 44.8434 50.8719 44.7888 50.8709C44.9195 51.1922 45.0643 51.5355 45.201 51.8454L45.7804 53.1589H58.2273C58.209 52.8971 58.2505 52.6255 58.3631 52.5155C58.5239 52.3581 58.6848 52.4637 58.6809 52.7242C58.6797 52.8041 58.7839 52.9855 58.9255 53.1589H70.3507L70.3629 53.1345C70.165 53.144 69.9512 53.1051 69.7629 53.0066C69.3462 52.7887 69.1668 51.9767 69.4701 51.6805C69.5483 51.6039 69.8334 51.5413 70.1032 51.5413C70.4218 51.5413 70.7199 51.765 70.89 52.0832L72.357 49.1571L45.4558 49.1418C45.0508 49.2774 44.6355 49.3381 44.2279 49.3243ZM54.5895 28.8939C54.472 28.823 54.3759 28.671 54.3759 28.5562C54.3759 28.4414 54.472 28.4055 54.5895 28.4765C54.707 28.5474 54.8031 28.6994 54.8031 28.8142C54.8031 28.929 54.707 28.9649 54.5895 28.8939ZM56.377 28.836C56.2162 29.1259 56.4422 29.2778 56.8365 29.13C56.8759 29.1152 56.9112 29.0969 56.9417 29.0761C57.0518 29.2375 55.2292 29.3328 51.733 29.3494C51.5959 29.0317 51.2429 28.9261 51.0722 29.196C51.0398 29.2472 51.0201 29.2998 51.0117 29.3517C51 29.3517 50.9882 29.3517 50.9764 29.3517L50.4668 29.3525C50.5066 29.3148 50.5312 29.2634 50.5312 29.207C50.5312 29.0922 50.4889 28.9983 50.437 28.9983C50.3851 28.9983 50.2834 29.0922 50.2108 29.207C50.175 29.2636 50.1672 29.3152 50.1834 29.3529L44.5296 29.361V27.6982V26.0355L46.9969 26.4737C49.4684 26.9125 54.6114 28.2244 56.377 28.836ZM73.2792 30.2507C73.1029 30.2507 72.9588 30.1098 72.9588 29.9376C72.9588 29.7654 73.1029 29.6245 73.2792 29.6245C73.4554 29.6245 73.5996 29.7654 73.5996 29.9376C73.5996 30.1098 73.4554 30.2507 73.2792 30.2507ZM74.1525 30.3039C74.0853 30.2384 74.1329 30.0641 74.2581 29.9167C74.5689 29.5508 76.7727 29.6639 77.044 30.0597C77.8734 31.2701 77.9388 31.5573 77.5462 32.2697C77.3843 32.5634 77.2136 32.8013 77.0274 32.9867C78.0951 33.4478 79.0742 33.8633 79.8611 34.1902L83 27.9295C82.5597 28.1568 82.1596 28.342 81.845 28.4595C79.3758 29.3814 75.5312 29.5851 72.9079 28.9327C71.8048 28.6582 70.8424 28.4338 70.7688 28.4338C70.6956 28.4338 70.6354 28.8316 70.6354 29.3177C70.6354 30.0089 70.7937 30.2296 73.6852 31.5229C73.722 31.3257 73.8012 31.1291 73.9272 30.941C74.1182 30.6563 74.2196 30.3695 74.1525 30.3039ZM65.9139 32.488C65.9006 32.7976 65.9927 33.1702 66.1664 33.3399C66.3074 33.4777 66.5957 33.5904 66.8072 33.5904C67.0906 33.5904 67.217 33.3283 67.1872 33.0163C68.3178 33.4879 69.6721 34.0582 71.0878 34.6595C71.1025 34.6756 71.1175 34.6917 71.133 34.7079C71.5358 35.1327 71.9794 35.3051 72.4166 35.2253C72.5922 35.3003 72.7679 35.3754 72.9436 35.4505C75.2477 36.4361 76.9426 37.1861 78.0781 37.7464L77.3782 39.1423C77.2326 39.1327 77.0808 39.1219 76.9231 39.1101C73.423 38.848 68.9261 37.9922 65.3028 36.8984L62.6763 36.1054V33.665V31.2243L64.3477 31.8564C64.6265 31.9618 65.1765 32.1841 65.9139 32.488ZM10.1776 32.8129C10.1511 33.0625 9.85825 33.0141 9.7664 32.745C9.71941 32.6073 9.79629 32.5321 9.93726 32.5781C10.0782 32.624 10.1863 32.7296 10.1776 32.8129ZM11.1227 32.9642C10.9465 32.9642 10.8023 32.8703 10.8023 32.7555C10.8023 32.6407 10.9465 32.5467 11.1227 32.5467C11.2989 32.5467 11.4431 32.6407 11.4431 32.7555C11.4431 32.8703 11.2989 32.9642 11.1227 32.9642ZM22.6035 33.7616C22.0744 33.8348 21.9811 33.6038 22.382 33.2122C22.7016 32.8997 23.0841 33.0016 23.0841 33.399C23.0841 33.5616 22.8677 33.7248 22.6035 33.7616ZM49.372 35.3872C48.8436 35.2575 48.6257 34.6871 48.9747 34.3462C49.2708 34.0569 50.2061 34.3159 50.2823 34.7084C50.3898 35.2611 50.0107 35.5437 49.372 35.3872ZM69.3498 34.9046C69.0756 35.1726 68.7977 34.9655 69.0006 34.6445C69.0792 34.5203 69.2413 34.4777 69.361 34.5499C69.5068 34.638 69.5032 34.7547 69.3498 34.9046ZM9.28367 36.6915C9.06345 36.3515 9.0391 35.8007 9.23603 35.6082C9.62478 35.2281 10.3751 35.7046 10.3751 36.3317C10.3751 36.7984 9.53315 37.076 9.28367 36.6915ZM47.7453 37.2355C47.8201 37.1375 47.9121 37.0582 48.0214 37.0052C48.7733 36.6414 49.1403 36.6842 49.6151 37.191C49.6718 37.2516 49.7245 37.3108 49.7729 37.3688C53.0148 37.4909 57.7942 37.3766 58.1555 37.0258C58.3657 36.8218 58.5376 35.9178 58.5376 35.0169V33.3788H52.4887H46.4397V35.0169C46.4397 35.9178 46.6117 36.8218 46.8218 37.0258C46.9075 37.109 47.2418 37.1789 47.7453 37.2355ZM60.5323 40.8704C60.7553 41.0216 61.0305 41.1037 61.3323 41.0701C61.8776 41.0093 61.9667 40.9056 62.0218 40.2683C62.0327 40.1419 62.0378 40.0344 62.0346 39.9406C62.2909 40.0065 62.5932 40.0986 62.9498 40.2181C63.8179 40.5088 64.8394 40.8009 65.9477 41.0817C65.9355 41.1308 65.9367 41.1904 65.9507 41.2613C65.9904 41.4621 66.1643 41.6266 66.3373 41.6266C66.5071 41.6266 66.6777 41.4682 66.7215 41.2725C69.5499 41.9516 72.8161 42.5429 75.518 42.8524L74.4387 45.0052L69.0697 45.0506C68.6965 45.0538 68.3376 45.0568 67.9927 45.0596C68.1221 44.4622 67.656 43.3378 66.9898 42.9896C66.4007 42.6813 65.4374 42.7245 64.9143 43.0827C64.3415 43.4747 64.1592 44.3002 64.419 45.0836C59.5976 45.102 59.5056 45.0034 59.9167 44.5626C60.2876 44.1645 60.4478 43.437 60.4478 42.1473C60.4478 41.6926 60.4796 41.2441 60.5323 40.8704ZM11.6626 42.0203C11.7882 42.1568 11.9737 42.2528 12.1907 42.2528C12.4 42.2528 12.6779 42.0829 12.8082 41.8752C12.9409 41.6637 12.9653 41.5338 12.863 41.3997C14.9034 40.7356 17.0168 41.8439 17.7944 43.7591C17.6592 43.535 17.3214 43.4133 16.9945 43.6108C16.7837 43.7381 16.7612 43.9523 16.9071 44.4422C17.0919 45.0635 17.5274 45.2568 17.5334 44.7202C17.5349 44.5847 17.6068 44.4046 17.6936 44.32C17.8323 44.1845 17.8739 44.0344 17.8489 43.9008C18.014 44.3541 18.1053 44.8495 18.1053 45.3751C18.1053 48.1007 14.9093 49.9499 12.3872 48.6836C11.2273 48.1014 10.5162 47.1286 10.2492 46.0714C10.5755 46.0168 10.6955 45.8577 10.6955 45.4881C10.6955 45.1055 10.5669 44.9485 10.2141 44.8995C10.187 44.8957 10.1603 44.8932 10.1342 44.892C10.1921 43.8006 10.7033 42.7375 11.6626 42.0203ZM13.9121 43.1921C13.5552 43.1921 13.3144 42.8942 13.5137 42.6992C13.769 42.4498 14.2199 42.5646 14.2199 42.879C14.2199 43.0512 14.0815 43.1921 13.9121 43.1921ZM2.05729 43.2737C1.99855 43.2163 2.08911 43.0856 2.2585 42.9833C2.42788 42.881 2.61456 42.8443 2.6733 42.9017C2.73204 42.9591 2.64147 43.0898 2.47209 43.1921C2.30271 43.2943 2.11602 43.3311 2.05729 43.2737ZM11.9374 45.582C12.0066 45.1654 12.1758 44.6922 12.3133 44.5302C12.619 44.1704 13.6133 44.1439 13.9636 44.4862C14.6328 45.1402 13.9845 46.9553 13.0863 46.9426C12.224 46.9304 11.7975 46.4253 11.9374 45.582ZM24.3682 47.2903C23.9947 47.4303 23.5553 47.0085 23.7516 46.6983C23.9118 46.4449 24.1781 46.4982 24.4703 46.8424C24.6848 47.0949 24.6658 47.1786 24.3682 47.2903ZM2.91189 47.158C2.78758 47.158 2.68569 47.064 2.68569 46.9492C2.68569 46.8344 2.72798 46.7405 2.77988 46.7405C2.83178 46.7405 2.93346 46.8344 3.00608 46.9492C3.0787 47.064 3.0362 47.158 2.91189 47.158ZM48.3952 50.9151C48.2777 50.9151 48.1816 50.8212 48.1816 50.7064C48.1816 50.5916 48.2777 50.4977 48.3952 50.4977C48.5127 50.4977 48.6088 50.5916 48.6088 50.7064C48.6088 50.8212 48.5127 50.9151 48.3952 50.9151ZM58.9682 51.9588C58.792 51.9588 58.6478 51.8179 58.6478 51.6457C58.6478 51.4735 58.792 51.3326 58.9682 51.3326C59.1444 51.3326 59.2886 51.4735 59.2886 51.6457C59.2886 51.8179 59.1444 51.9588 58.9682 51.9588ZM18.3391 52.9837C18.4019 52.5259 18.5751 52.0078 18.7238 51.8327C18.9047 51.6198 19.1755 51.5591 19.5427 51.649C20.3751 51.8532 20.6562 52.175 20.5853 52.843C20.5026 53.6226 19.6452 54.1647 18.8163 53.9614C18.2667 53.8265 18.2329 53.7574 18.3391 52.9837ZM58.2713 52.0719C58.1489 52.6969 57.7164 52.6457 57.6183 51.9947C57.5685 51.6628 57.6608 51.5413 57.9626 51.5413C58.2892 51.5413 58.3533 51.6517 58.2713 52.0719ZM63.6994 52.6484C63.235 52.8225 62.6103 52.2953 62.7773 51.8699C62.9783 51.3581 63.8632 51.5238 63.9456 52.0888C63.9811 52.3324 63.8705 52.5844 63.6994 52.6484ZM6.64982 53.8374C6.46677 53.8374 6.31682 53.7434 6.31682 53.6286C6.31682 53.5138 6.40717 53.4199 6.51781 53.4199C6.62845 53.4199 6.77819 53.5138 6.85081 53.6286C6.92343 53.7434 6.83287 53.8374 6.64982 53.8374ZM17.4612 58.059C17.1528 58.3604 16.5489 57.8897 16.7117 57.4749C16.7762 57.3111 16.9656 57.1771 17.1329 57.1771C17.5353 57.1771 17.7562 57.7707 17.4612 58.059ZM48.1907 2.00891V4.01782H50.5871C53.5163 4.01782 54.3988 3.55268 54.3988 2.00891C54.3988 0.46514 53.5163 0 50.5871 0H48.1907V2.00891ZM48.3499 41.8104C48.3499 42.2718 48.872 43.0031 49.7912 43.8286C51.0044 44.9186 51.4422 45.1232 52.5612 45.1232C53.7284 45.1232 54.0592 44.9495 55.2756 43.6994C57.4341 41.4812 57.2005 41.2757 52.4053 41.1734L48.3499 41.0869V41.8104Z" fill="black"/>
</svg>
