<svg width="61" height="64" viewBox="0 0 61 64" fill="none" xmlns="http://www.w3.org/2000/svg">
<path fill-rule="evenodd" clip-rule="evenodd" d="M26.6494 1.5393C26.8583 1.57324 27.2346 1.56373 27.8493 1.55154C29.3576 1.52161 29.7096 1.27671 30.0486 0C33.3278 0.27403 37.6017 3.98761 38.8554 7.45903C40.2668 11.3668 38.337 15.343 35.0659 16.7977C31.7947 18.2523 27.9713 17.1179 26.0045 13.1737C24.3687 9.89342 24.4313 4.28932 26.6494 1.5393ZM31.0386 2.56366C30.8784 2.56366 30.7474 2.36437 30.7474 2.12078C30.7474 1.8772 30.8784 1.6779 31.0386 1.6779C31.1987 1.6779 31.3297 1.8772 31.3297 2.12078C31.3297 2.36437 31.1987 2.56366 31.0386 2.56366ZM32.2759 5.46307C31.7384 5.54042 31.6208 5.4173 31.6208 4.77807C31.6208 4.13885 31.7384 4.01572 32.2759 4.09308C32.7059 4.15508 32.9309 4.3904 32.9309 4.77807C32.9309 5.16574 32.7059 5.40106 32.2759 5.46307ZM36.8611 5.95909C36.701 5.8587 36.57 5.64376 36.57 5.48138C36.57 5.31898 36.701 5.2682 36.8611 5.36858C37.0213 5.46897 37.1523 5.68391 37.1523 5.8463C37.1523 6.00869 37.0213 6.05948 36.8611 5.95909ZM31.0214 6.69723C30.852 6.69723 30.794 6.56436 30.893 6.40197C30.992 6.23958 31.1306 6.10672 31.2013 6.10672C31.272 6.10672 31.3297 6.23958 31.3297 6.40197C31.3297 6.56436 31.1908 6.69723 31.0214 6.69723ZM32.6782 7.28774C32.1376 7.28774 31.8109 6.80648 32.0671 6.38633C32.3303 5.95437 32.9117 6.20238 33.0249 6.79555C33.0794 7.08017 32.9332 7.28774 32.6782 7.28774ZM25.3581 8.4658C24.8465 8.03532 25.2294 7.37277 26.2003 7.00872C27.1729 6.64378 27.5281 6.76602 28.2239 7.70611C29.1145 8.90868 29.2612 9.37637 28.9852 10.1296C28.713 10.8721 27.1808 11.2052 26.4684 10.677C26.0399 10.3593 26.0381 10.2669 26.4492 9.67133C26.7296 9.26535 26.9756 9.13662 27.0952 9.33296C27.4058 9.84287 27.7552 9.69996 27.9392 8.98722C28.1896 8.01612 27.5473 7.48438 26.5764 7.85876C26.1485 8.02381 25.7982 8.31139 25.7982 8.4977C25.7982 8.73833 25.671 8.72917 25.3581 8.4658ZM52.6403 12.248C52.2636 11.8659 52.1687 10.7579 52.4852 10.4372C52.7711 10.1473 52.9169 10.1889 53.5053 10.7289C54.2107 11.3764 54.2162 12.6023 53.5137 12.6023C53.2255 12.6023 52.8325 12.4429 52.6403 12.248ZM56.4847 12.6012C56.889 13.2271 57.2174 13.8672 57.4457 14.4992C58.857 18.407 56.9273 22.3832 53.6561 23.8378C51.3418 24.867 48.751 24.6002 46.7369 22.9593C46.8963 22.8036 46.9506 22.5368 46.9913 22.0484C47.0644 21.17 46.947 20.9347 46.2186 20.4983C45.2222 19.9012 45.1681 19.8729 44.674 20.3695C44.6472 20.3181 44.6208 20.2662 44.5947 20.2139C42.6279 16.2697 43.1165 8.96584 46.855 7.30338C49.3892 6.17644 53.4532 8.62248 55.853 11.7124C55.7603 12.1905 56.0233 12.5777 56.4847 12.6012ZM44.8253 14.9156C44.2678 14.8085 43.9434 13.5462 44.259 12.7122C44.501 12.0726 45.542 12.7278 45.7741 13.6658C45.9907 14.541 45.5938 15.0636 44.8253 14.9156ZM29.7497 15.1439C29.0295 14.9605 28.7325 14.1536 29.2082 13.6714C29.6117 13.2622 30.8866 13.6286 30.9905 14.1837C31.137 14.9655 30.6202 15.3653 29.7497 15.1439ZM56.9793 14.4612C56.6055 14.8404 56.2268 14.5475 56.5033 14.0933C56.6105 13.9177 56.8314 13.8574 56.9945 13.9596C57.1933 14.0842 57.1884 14.2493 56.9793 14.4612ZM11.7041 17.3264C11.2692 17.3264 10.8831 16.6075 11.1649 16.3219C11.4028 16.0804 11.9731 16.0999 12.2278 16.3579C12.3431 16.4749 12.8663 16.5333 13.3903 16.4876C14.5563 16.3857 15.1659 17.0176 14.908 18.0607C14.7514 18.6934 14.558 18.8027 13.5967 18.8027C12.6372 18.8027 12.4424 18.6928 12.2866 18.0645C12.1862 17.6586 11.9242 17.3264 11.7041 17.3264ZM11.9405 23.1837C11.822 22.9891 12.0197 22.6038 12.3976 22.2935C12.9405 21.8476 13.1513 21.8137 13.5356 22.1101C13.7953 22.3103 14.0433 22.4924 14.0873 22.5152C14.131 22.5379 14.0841 22.7747 13.9833 23.0416C13.7705 23.6038 12.2605 23.7089 11.9405 23.1837ZM52.8732 23.9696C52.6374 23.9696 52.4004 23.737 52.3463 23.4529C52.2776 23.0903 52.4348 22.9362 52.8732 22.9362C53.3117 22.9362 53.4689 23.0903 53.4002 23.4529C53.3461 23.737 53.1091 23.9696 52.8732 23.9696ZM20.4542 34.1051C21.9223 35.1121 23.8292 35.1159 25.453 34.0983C26.5188 33.4308 27.8361 31.5275 27.8361 30.6559C27.8361 29.6317 26.9523 27.5198 26.2981 26.9812C26.1446 26.8548 25.9919 26.7332 25.8406 26.6168C26.5772 26.0791 27.4075 25.5891 28.3453 25.172C33.7194 22.7823 39.1188 24.3496 41.0008 25.497C42.8827 26.6444 44.9686 28.2679 45.9456 29.2508C46.3614 29.669 46.7718 30.1923 47.1657 30.6945L47.1657 30.6945C47.6974 31.3725 48.1991 32.0121 48.6432 32.3031C49.4164 32.8097 51.2983 33.957 52.7724 34.1519C54.2466 34.3467 58.8729 35.4075 60.4022 38.9794C61.1218 40.6602 61.2619 43.289 60.4327 45.8875C60.172 46.1147 60.0271 46.4895 60.0746 46.8609C59.8865 47.3102 59.6674 47.7548 59.4153 48.1896C59.4291 48.087 59.4181 47.9768 59.3753 47.8637C59.1733 47.3302 58.5747 47.3216 58.1456 47.846C57.8944 48.153 57.9206 48.3384 58.2557 48.6204C58.5373 48.8574 58.894 48.8226 59.1381 48.6426C58.7871 49.1869 58.3812 49.7122 57.9163 50.2078C57.3599 50.0305 56.4098 50.0854 56.2195 50.3975C56.0425 50.6881 56.1529 51.2304 56.3745 51.57C55.521 52.1932 54.5328 52.7309 53.3966 53.1497C49.3275 54.6494 47.426 54.4236 45.814 54.2322C44.4756 54.0733 43.3369 53.9381 41.3231 54.8337C39.2329 55.7631 38.2652 57.0104 37.2411 58.3303C36.0901 59.8138 34.8678 61.3892 31.9004 62.7088C26.2927 65.2025 19.1557 64.1243 17.0147 59.1237C15.6893 56.0281 16.8024 52.1316 17.4312 51.0016C17.5305 50.823 17.639 50.6333 17.7529 50.4341L17.7531 50.4338L17.7533 50.4335L17.7535 50.433C18.3604 49.3719 19.1213 48.0414 19.4789 46.6895C19.8048 45.4572 19.6582 44.2683 19.5071 43.0426C19.4612 42.6706 19.4149 42.2951 19.3813 41.914C19.2369 40.2775 19.2836 37.1386 20.2055 34.7444C20.2817 34.5467 20.3641 34.3328 20.4542 34.1051ZM28.665 29.8514C27.7887 29.3917 27.5948 28.6169 28.2001 27.9951C28.6542 27.5283 30.1844 27.792 30.6438 28.4161C31.5195 29.606 30.1253 30.6173 28.665 29.8514ZM4.68761 30.6096C4.16038 30.1661 4.11989 29.2411 4.6186 29.0368C5.18775 28.8038 5.27976 28.818 5.65212 29.1956C6.51677 30.0725 5.61719 31.392 4.68761 30.6096ZM0.457319 30.6135C0.470971 30.5817 0.485488 30.5487 0.500852 30.5145C0.889801 29.6485 1.52711 29.5139 2.34955 30.1239C2.73879 30.4127 2.8334 30.7295 2.69569 31.2854C2.44008 32.3182 1.44092 32.6147 0.711061 31.8742C0.450545 31.6101 0.321333 31.4334 0.304496 31.2217C-0.306788 33.9794 0.0184587 37.3009 1.13495 39.5398C3.10181 43.484 6.92519 44.6184 10.1963 43.1638C13.4675 41.7091 15.3973 37.7329 13.9859 33.8251C12.4864 29.6731 6.6664 25.1747 3.39524 26.6293C1.93754 27.2775 0.973928 28.7835 0.457319 30.6135ZM41.7166 32.9843C41.1387 31.992 41.1011 31.4502 41.5774 30.9672C41.7696 30.7723 42.3501 30.6128 42.8677 30.6128C44.1274 30.6128 45.057 31.8597 44.6643 33.0233C44.1816 34.4532 42.5597 34.432 41.7166 32.9843ZM8.59628 32.2527C8.1919 32.506 7.62216 31.9444 7.8702 31.5373C8.0769 31.198 8.91275 31.4153 8.91275 31.808C8.91275 31.9435 8.77038 32.1434 8.59628 32.2527ZM43.1065 33.2701C42.6188 33.2701 42.3006 32.7741 42.5382 32.3844C42.737 32.0581 43.3627 31.9902 43.634 32.2657C43.912 32.5474 43.5324 33.2701 43.1065 33.2701ZM47.1502 33.9566C46.8871 34.2235 46.145 33.5619 46.3432 33.2368C46.5913 32.8296 47.3418 32.9288 47.3418 33.3685C47.3418 33.5852 47.2556 33.8497 47.1502 33.9566ZM23.7222 36.9847C23.3207 37.2363 22.767 36.6585 23.0168 36.2484C23.1245 36.0718 23.3216 35.9274 23.4552 35.9274C23.8424 35.9274 24.0567 36.7751 23.7222 36.9847ZM28.4184 37.1084C28.2583 37.1084 28.1273 36.9756 28.1273 36.8132C28.1273 36.6508 28.2583 36.5179 28.4184 36.5179C28.5785 36.5179 28.7095 36.6508 28.7095 36.8132C28.7095 36.9756 28.5785 37.1084 28.4184 37.1084ZM42.8293 38.5847C42.5891 38.5847 42.3926 38.3854 42.3926 38.1418C42.3926 37.8982 42.5891 37.699 42.8293 37.699C43.0695 37.699 43.266 37.8982 43.266 38.1418C43.266 38.3854 43.0695 38.5847 42.8293 38.5847ZM41.8794 38.7447C41.7125 39.6287 41.123 39.5564 40.9894 38.6355C40.9215 38.166 41.0473 37.9942 41.4587 37.9942C41.9038 37.9942 41.9912 38.1504 41.8794 38.7447ZM49.2778 39.5602C48.6449 39.8065 47.7933 39.0607 48.021 38.4589C48.295 37.735 49.5011 37.9694 49.6135 38.7687C49.6618 39.1132 49.511 39.4696 49.2778 39.5602ZM57.5424 40.0669C56.9744 39.7587 56.7298 38.6101 57.1432 38.1911C57.2498 38.0828 57.6384 37.9942 58.0061 37.9942C58.6752 37.9942 59.2781 38.7453 59.2781 39.5788C59.2781 40.1788 58.2705 40.4622 57.5424 40.0669ZM19.9757 41.1159C19.9757 40.4522 20.463 39.3137 20.9652 38.8044C21.551 38.2103 22.5024 38.4607 23.0846 39.3621C23.4843 39.981 23.487 40.1372 23.1065 40.7253C22.7792 41.2314 22.3554 41.4076 21.3262 41.4655C20.3093 41.5228 19.9757 41.4366 19.9757 41.1159ZM42.1154 41.1032C41.7774 40.8913 41.6997 39.681 42.0045 39.3722C42.2237 39.1495 42.443 39.2989 42.4377 39.6674C42.4357 39.8026 42.6392 40.1431 42.8896 40.4239C43.3033 40.8874 43.3027 40.9512 42.8829 41.1145C42.6284 41.2134 42.2831 41.2084 42.1154 41.1032ZM7.14881 40.9468C6.97937 40.9468 6.92143 40.8139 7.02041 40.6515C7.1194 40.4891 7.25796 40.3562 7.32871 40.3562C7.39945 40.3562 7.4571 40.4891 7.4571 40.6515C7.4571 40.8139 7.31825 40.9468 7.14881 40.9468ZM55.7674 41.242C55.6166 41.242 55.4934 41.1091 55.4934 40.9468C55.4934 40.7844 55.6978 40.6515 55.9473 40.6515C56.1968 40.6515 56.3202 40.7844 56.2212 40.9468C56.1223 41.1091 55.9182 41.242 55.7674 41.242ZM43.8433 43.3829C43.2782 42.6542 43.2782 42.6445 43.8724 41.7983C44.8631 40.3872 46.4684 40.7929 46.4684 42.4543C46.4684 43.1089 46.5741 43.2255 47.0521 43.0986C47.7299 42.9191 48.5063 43.4718 48.5063 44.1337C48.5063 44.3853 48.2894 44.8338 48.0245 45.1308C47.6018 45.6047 47.598 45.6708 47.9934 45.6708C48.5969 45.6708 48.9008 46.535 48.3698 46.7414C47.8609 46.9395 47.3418 46.649 47.3418 46.1663C47.3418 45.9708 47.0469 45.6797 46.6868 45.5194C46.3266 45.359 45.988 44.9156 45.9348 44.5338C45.8567 43.9734 45.7007 43.8665 45.1251 43.9781C44.6104 44.0779 44.2538 43.9123 43.8433 43.3829ZM59.2609 43.3088C59.1101 43.3088 58.987 43.1759 58.987 43.0135C58.987 42.8511 59.1913 42.7183 59.4408 42.7183C59.6903 42.7183 59.8138 42.8511 59.7148 43.0135C59.6158 43.1759 59.4117 43.3088 59.2609 43.3088ZM55.4934 44.9572C55.4934 45.4786 54.8666 45.388 54.6867 44.8406C54.6232 44.6475 54.779 44.4898 55.0326 44.4898C55.2858 44.4898 55.4934 44.7 55.4934 44.9572ZM22.2566 48.2853C22.3079 46.9569 22.8136 46.0641 23.8128 45.5377C24.6122 45.1166 25.0448 45.2256 26.2955 46.163C27.531 47.0892 27.8571 48.6361 27.0527 49.7551C26.7415 50.1882 26.4015 50.7752 26.2972 51.0592C26.078 51.6568 25.7709 51.6878 24.2672 51.2644C22.8992 50.8791 22.1964 49.838 22.2566 48.2853ZM51.6648 47.0972C51.2881 47.0429 50.9416 46.7591 50.8851 46.4589C50.8065 46.0402 50.9367 45.9401 51.4616 46.016C51.8383 46.0703 52.1847 46.354 52.2412 46.6543C52.3198 47.073 52.1897 47.1731 51.6648 47.0972ZM45.763 48.5254C45.1292 48.2785 44.7065 47.1028 45.0821 46.6304C45.6352 45.9342 46.7613 46.3529 46.7552 47.2525C46.7485 48.1725 46.3083 48.7376 45.763 48.5254ZM37.1831 49.4492C36.878 48.9538 36.8763 48.7037 37.1738 48.1397C37.6312 47.2732 39.1107 47.1911 40.07 47.9788C40.6316 48.44 40.6747 48.6077 40.3757 49.174C39.6941 50.4655 37.904 50.6199 37.1831 49.4492ZM30.4362 50.384C29.7955 50.0362 29.7136 49.4947 30.2234 48.9777C30.7332 48.4607 31.2671 48.5437 31.6101 49.1935C32.0377 50.0037 31.2351 50.8177 30.4362 50.384ZM36.4416 49.2139C36.3709 49.2139 36.2323 49.081 36.1333 48.9186C36.0343 48.7562 36.0923 48.6234 36.2617 48.6234C36.4312 48.6234 36.57 48.7562 36.57 48.9186C36.57 49.081 36.5124 49.2139 36.4416 49.2139ZM53.7466 50.9854C53.5865 50.9854 53.4555 50.8525 53.4555 50.6902C53.4555 50.5278 53.5865 50.3949 53.7466 50.3949C53.9068 50.3949 54.0378 50.5278 54.0378 50.6902C54.0378 50.8525 53.9068 50.9854 53.7466 50.9854ZM49.8336 51.2807C49.7628 51.2807 49.6242 51.1478 49.5253 50.9854C49.4263 50.823 49.4842 50.6902 49.6537 50.6902C49.8231 50.6902 49.962 50.823 49.962 50.9854C49.962 51.1478 49.9043 51.2807 49.8336 51.2807ZM49.3457 53.0705C48.5357 53.5104 47.7729 52.8186 48.0594 51.9042C48.2583 51.2688 48.6781 51.1395 49.5014 51.4599C50.162 51.717 50.0691 52.6781 49.3457 53.0705ZM38.6382 53.1396C38.2644 53.5187 37.8856 53.2258 38.1622 52.7717C38.2693 52.596 38.4903 52.5358 38.6533 52.6379C38.8522 52.7625 38.8472 52.9276 38.6382 53.1396ZM30.7338 54.5358C29.9847 54.9424 29.408 54.5308 29.6886 53.7894C29.7989 53.4977 30.1227 53.3436 30.5049 53.4006C31.3763 53.5305 31.4956 54.1222 30.7338 54.5358ZM22.6969 58.2932C22.5114 57.1344 22.5708 57.0718 24.7781 56.1042C25.909 55.6085 26.2667 55.4283 26.5677 55.499C26.749 55.5416 26.9096 55.6752 27.2062 55.8857C27.7404 56.2654 27.8329 56.5285 27.6801 57.2345C27.4064 58.4979 26.8579 59.463 26.4853 59.3373C26.3083 59.2773 26.0934 59.4997 26.0081 59.8309C25.8896 60.2901 25.6145 60.4335 24.8518 60.4335C23.6419 60.4335 22.9254 59.722 22.6969 58.2932ZM25.6186 57.7763C25.5575 57.7763 25.5071 57.4441 25.5071 57.0381C25.5071 56.6321 25.6201 56.3 25.7578 56.3C25.8958 56.3 25.9461 56.6321 25.8696 57.0381C25.793 57.4441 25.6801 57.7763 25.6186 57.7763ZM33.0765 58.9573C32.9164 58.9573 32.7853 58.758 32.7853 58.5144C32.7853 58.2708 32.9164 58.0715 33.0765 58.0715C33.2366 58.0715 33.3676 58.2708 33.3676 58.5144C33.3676 58.758 33.2366 58.9573 33.0765 58.9573ZM29.3605 62.3164C28.6228 61.8446 28.3803 60.5144 28.9299 59.957C29.4266 59.4533 31.1617 59.5546 31.7189 60.1197C32.5091 60.921 30.3393 62.9426 29.3605 62.3164ZM21.3739 14.666C19.8743 10.514 14.0543 6.01556 10.7832 7.47021C7.04471 9.13267 6.55603 16.4365 8.52288 20.3807C10.4897 24.3249 14.3131 25.4593 17.5843 24.0047C20.8554 22.55 22.7852 18.5738 21.3739 14.666Z" fill="black"/>
</svg>
