<svg width="71" height="67" viewBox="0 0 71 67" fill="none" xmlns="http://www.w3.org/2000/svg">
<path fill-rule="evenodd" clip-rule="evenodd" d="M15.4107 2.89072C16.3117 2.9904 16.7364 3.1809 17.0063 3.57646C17.2351 3.91184 17.61 4.18611 17.8398 4.18611C18.4699 4.18611 18.3408 3.28369 17.6234 2.67165C17.5015 2.56769 17.3996 2.45243 17.3235 2.3382C21.6895 1.08071 25.4704 0.0573808 25.8241 0.0397089L26.4874 0.00648291V5.95513C25.153 6.32198 23.0095 6.94561 20.6957 7.64455L14.0582 9.64969L13.9155 11.6187C13.6654 15.064 11.9728 17.3694 8.81318 18.5682L7.1837 19.1866L7.11445 24.9352C6.99831 34.575 7.55066 38.1924 9.8989 43.1729C11.8013 47.2078 14.7588 51.0908 18.5982 54.6091C18.3969 54.6739 18.2575 54.8099 18.2575 54.9661C18.2575 55.585 18.6163 55.7889 19.0631 55.424C19.1493 55.3536 19.2209 55.2855 19.2783 55.2204C19.7389 55.6265 20.2115 56.0275 20.6957 56.4231C21.2619 56.8855 21.9521 57.4116 22.6819 57.9448C22.4005 58.4702 22.1976 59.0857 22.1976 59.5095C22.1976 59.8332 22.545 59.9203 23.6036 59.8625C24.2652 59.8264 24.6865 59.7447 24.9922 59.5673C25.4935 59.9055 25.9713 60.2186 26.3973 60.4874C26.3794 61.894 26.3585 63.0242 26.3344 63.9053C26.2882 63.9264 26.2409 63.9494 26.1923 63.9742C25.4363 64.3605 24.9517 64.9422 24.7228 65.7462C23.6749 65.1455 22.1994 64.2109 20.7193 63.2145C21.1433 62.8687 21.0218 62.062 20.4209 61.7457C20.0263 61.5379 19.7023 61.5597 19.3437 61.8175C19.2288 61.9002 19.1443 61.9926 19.0866 62.0902C18.2869 61.5262 17.5354 60.9747 16.9069 60.4836C10.8525 55.7531 6.26066 50.3621 3.48055 44.7217C0.76035 39.2028 -0.0219355 35.0908 0.000464657 25.2846C0.224535 25.2468 0.461213 25.169 0.698363 25.0442C1.4867 24.6292 1.43394 24.3797 0.464055 23.9367C0.288193 23.8564 0.138876 23.7899 0.0100344 23.7375C0.012317 23.5037 0.0149766 23.2668 0.0180003 23.0268L0.104064 16.1884L2.13041 15.4528C4.25313 14.6824 5.84337 13.5277 6.90596 11.9826C7.02889 12.6641 7.46241 12.7756 7.58725 12.0041C7.63093 11.7347 7.58045 11.3664 7.47934 11.0105C8.03436 9.90235 8.36591 8.62806 8.47534 7.18586L8.65284 4.84351L8.68404 4.83449C8.79708 5.08106 9.03159 5.27383 9.36908 5.32135C9.91628 5.39837 10.2995 4.95022 10.3093 4.36484L15.4107 2.89072ZM42.8513 3.08477C43.0067 3.58981 43.5512 3.83656 44.0663 3.56543C44.123 3.53558 44.1753 3.50484 44.2233 3.47344L48.8209 4.77586L49.0119 6.68815C49.0497 7.06649 49.0977 7.43189 49.1562 7.78474C48.9885 7.82876 48.8694 7.93654 48.8694 8.06169C48.8694 8.21198 49.0412 8.33722 49.2624 8.35707C49.5025 9.51886 49.8672 10.5358 50.3683 11.4232C49.704 12.6345 50.2665 14.1847 51.8554 14.9683C52.8584 15.4629 53.7009 15.3706 54.2728 14.9545C54.7408 15.1787 55.2424 15.3808 55.7788 15.5624C57.5026 16.1458 57.5864 16.2189 57.5708 17.1208C57.5619 17.6415 57.5286 21.3771 57.4967 25.4227L57.4664 29.2914C57.3769 29.1225 57.2563 28.9625 57.1046 28.8274C56.492 28.2821 56.3402 28.2401 56.0425 28.5328C55.7131 28.8566 55.8119 29.9754 56.2041 30.3612C56.4041 30.558 56.8133 30.719 57.1133 30.719C57.2554 30.719 57.3697 30.6722 57.4562 30.5922L57.439 32.7782L53.9759 32.8053C52.8604 32.814 51.8623 32.874 50.9342 32.9975C51.106 30.8162 51.1469 28.2268 51.1046 24.9352L51.0629 21.6933C51.0835 21.66 51.1012 21.6249 51.1155 21.5881C51.2133 21.3375 51.1719 21.0769 51.0524 20.8704L51.0307 19.1866L49.2926 18.5682C45.9222 17.3694 44.1168 15.064 43.8501 11.6187L43.8297 11.3545C44.0377 12.0696 44.545 12.3599 44.7725 11.655C44.8813 11.3184 45.112 11.0429 45.285 11.0429C45.4584 11.0429 45.5269 10.8548 45.4372 10.6252C45.3405 10.3769 45.5111 10.1465 45.8579 10.057C46.6735 9.84744 46.9005 9.06129 46.4186 8.11714C46.3431 7.96968 46.2672 7.82108 46.1974 7.68451C46.0587 7.41328 45.9444 7.18951 45.9067 7.11634C45.85 7.00604 46.0655 6.98339 46.3856 7.06567C47.3124 7.30417 47.5303 6.25954 46.6868 5.62097C45.6869 4.86433 44.9635 4.95288 44.6067 5.87556C44.3809 6.46018 44.3988 6.73089 44.6743 6.89843C44.8807 7.02394 44.4767 7.05076 43.7769 6.95864C42.7324 6.82091 42.5045 6.87785 42.5045 7.27703C42.5045 7.54475 42.6936 7.76357 42.9249 7.76357C43.2751 7.76357 43.5856 8.58038 43.6964 9.64928L36.6179 7.64455C34.5922 7.07084 32.6889 6.54809 31.2847 6.17613C31.3409 1.58906 31.4315 0.00239355 31.5725 8.09399e-06C31.7753 -0.0033997 35.7389 1.06972 40.3809 2.38495L42.8513 3.08477ZM43.7028 9.7138L43.7247 9.99678C43.719 9.90092 43.7116 9.80647 43.7028 9.7138ZM36.1615 4.48423C35.528 4.48423 35.161 3.81674 35.4237 3.14268C35.622 2.63498 37.352 2.51871 37.352 3.01329C37.352 3.68019 36.7013 4.48423 36.1615 4.48423ZM44.9292 4.63329C44.7625 4.73465 44.6261 4.67533 44.6261 4.50183C44.6261 4.32832 44.7625 4.18611 44.9292 4.18611C45.0959 4.18611 45.2323 4.24513 45.2323 4.31757C45.2323 4.39002 45.0959 4.53193 44.9292 4.63329ZM47.0823 10.833C46.6932 11.2158 46.2989 10.9201 46.5868 10.4616C46.6983 10.2842 46.9284 10.2234 47.0981 10.3265C47.3051 10.4523 47.3 10.619 47.0823 10.833ZM28.0193 13.5528C28.0384 13.5925 28.0586 13.6327 28.0799 13.6732C28.5718 14.6088 29.4962 14.9987 30.5852 14.7298C30.932 14.6442 31.2353 14.339 31.4465 13.9494L35.0491 15.0118C34.6618 15.7893 35.3593 16.6572 36.252 16.5603C36.5082 20.104 37.9999 23.3535 42.4973 23.6989C42.4405 23.7463 42.3875 23.8074 42.3405 23.8821C42.0617 24.326 42.3851 24.5672 42.9652 24.3484C43.2331 24.2473 43.3674 24.0294 43.2634 23.8642C43.2304 23.8117 43.1941 23.7663 43.1554 23.7281C43.2066 23.7288 43.258 23.7292 43.3099 23.7292C43.3099 29.1828 42.8621 33.7559 41.7754 37.605C38.976 40.0709 36.982 43.3894 36.2844 47.259C34.2208 49.2883 31.6251 50.9568 28.3999 52.3438C28.3185 52.313 28.2375 52.2815 28.1568 52.2494C29.2101 51.4635 30.381 49.7611 30.381 48.9479C30.381 47.9137 29.4608 45.7813 28.7798 45.2375C27.2513 44.017 25.7968 43.2389 25.0072 43.2192C24.5453 43.2076 23.8949 43.0916 23.5615 42.961C23.2281 42.8308 22.6262 42.8451 22.224 42.9932C21.7572 43.165 21.3789 43.1503 21.1783 42.953C20.8549 42.6349 19.6138 42.5738 18.9361 42.8424C18.8187 42.8889 18.7152 42.9449 18.6256 43.0102C17.6258 41.1522 16.7907 39.1139 16.1251 36.9574C16.6471 36.9018 16.7958 36.7237 16.9218 36.2303C17.1796 35.219 16.6047 34.5906 15.484 34.6332C14.6341 31.1546 14.2 27.4419 14.2 23.7292C14.7348 23.7292 15.2367 23.6968 15.7066 23.6322C16.6008 24.1345 17.5262 23.727 17.9332 22.9715C20.2586 21.7972 21.3 19.2581 21.3 15.3542L24.4329 14.5143C24.5897 14.8394 24.9771 14.9869 25.2891 14.68C25.5691 14.4046 25.5388 14.3238 25.1491 14.3223L28.0193 13.5528ZM47.6749 14.9185C47.5179 14.9185 47.3054 14.7843 47.2024 14.6204C47.0993 14.4564 47.2278 14.3223 47.4876 14.3223C47.7473 14.3223 47.9601 14.4564 47.9601 14.6204C47.9601 14.7843 47.8319 14.9185 47.6749 14.9185ZM29.7794 17.3941C29.9767 16.8703 30.3631 16.3936 30.6383 16.3355C31.9367 16.06 32.9824 16.893 32.6908 17.9704C32.3359 19.2803 31.9746 19.5305 30.3946 19.5609C29.4039 19.5799 29.008 19.5925 28.9325 19.4458C28.8804 19.3445 28.9808 19.1675 29.1435 18.8644C29.2962 18.5797 29.5823 17.9182 29.7794 17.3941ZM26.9133 17.6016C26.3778 17.6016 26.0356 17.1109 26.2893 16.7072C26.6187 16.1825 27.3501 16.3882 27.3501 17.0054C27.3501 17.3333 27.1537 17.6016 26.9133 17.6016ZM56.4466 17.711C56.4466 17.5414 56.5375 17.3133 56.6487 17.2042C56.7596 17.0948 56.9212 17.0745 57.0073 17.1595C57.0933 17.2442 57.0024 17.4722 56.8051 17.6663C56.5878 17.88 56.4466 17.8976 56.4466 17.711ZM33.7149 20.5828C33.5482 20.5828 33.4119 20.3816 33.4119 20.1356C33.4119 19.8897 33.5482 19.6884 33.7149 19.6884C33.8816 19.6884 34.018 19.8897 34.018 20.1356C34.018 20.3816 33.8816 20.5828 33.7149 20.5828ZM23.2214 21.7753C22.8186 21.7753 22.7977 21.6945 23.1069 21.3281C23.3145 21.0822 23.5357 20.8809 23.5985 20.8809C23.6615 20.8809 23.713 21.0822 23.713 21.3281C23.713 21.5741 23.4918 21.7753 23.2214 21.7753ZM20.4291 22.7976C20.3733 22.5442 20.4066 22.1348 20.5027 21.888C20.5991 21.6411 20.8025 21.515 20.9547 21.6075C21.1153 21.7052 21.0847 22.0856 20.881 22.517C20.6306 23.0462 20.5015 23.1264 20.4291 22.7976ZM35.0031 23.5104C34.4436 23.5885 34.3211 23.4642 34.3211 22.8187C34.3211 22.1733 34.4436 22.049 35.0031 22.1271C35.4507 22.1897 35.685 22.4273 35.685 22.8187C35.685 23.2102 35.4507 23.4478 35.0031 23.5104ZM56.7718 23.2659C56.0792 23.2659 56.0592 23.2325 56.3323 22.5325C56.5633 21.9408 57.1682 22.0883 57.3022 22.7689C57.3682 23.104 57.1955 23.2659 56.7718 23.2659ZM26.4635 23.8049C26.2844 23.8636 26.1377 23.6884 26.1377 23.415C26.1377 23.1416 26.2844 22.9663 26.4635 23.025C26.6427 23.0838 26.7894 23.2591 26.7894 23.415C26.7894 23.5709 26.6427 23.7462 26.4635 23.8049ZM39.7767 24.0112C39.61 23.9099 39.4736 23.6928 39.4736 23.5289C39.4736 23.3649 39.61 23.3136 39.7767 23.415C39.9434 23.5163 40.0798 23.7334 40.0798 23.8973C40.0798 24.0613 39.9434 24.1126 39.7767 24.0112ZM33.6971 24.7565C33.5207 24.7565 33.4604 24.6224 33.5634 24.4584C33.6665 24.2944 33.8107 24.1603 33.8844 24.1603C33.958 24.1603 34.018 24.2944 34.018 24.4584C34.018 24.6224 33.8735 24.7565 33.6971 24.7565ZM35.4219 25.3528C34.8591 25.3528 34.519 24.8668 34.7857 24.4426C35.0597 24.0065 35.665 24.2569 35.7829 24.8558C35.8396 25.1432 35.6874 25.3528 35.4219 25.3528ZM27.8011 26.5423C27.2686 26.1076 27.6671 25.4386 28.6779 25.071C29.6905 24.7026 30.0603 24.826 30.7847 25.7752C31.7118 26.9895 31.8646 27.4617 31.5773 28.2222C31.2939 28.972 29.6987 29.3082 28.9571 28.7749C28.5109 28.4541 28.5091 28.3608 28.9371 27.7595C29.2289 27.3496 29.485 27.2196 29.6096 27.4179C29.933 27.9327 30.2967 27.7884 30.4883 27.0688C30.7489 26.0882 30.0803 25.5513 29.0695 25.9293C28.624 26.096 28.2594 26.3864 28.2594 26.5745C28.2594 26.8174 28.1269 26.8082 27.8011 26.5423ZM22.8038 27.8012C22.8038 26.7966 23.3333 26.0474 24.1677 25.8715C25.1642 25.6616 25.9768 26.3565 26.0777 27.5055C26.1584 28.4249 26.0592 28.5919 25.2306 28.9293C23.9082 29.468 22.8038 28.9547 22.8038 27.8012ZM23.1069 30.1227C22.9402 30.1227 22.8038 29.9886 22.8038 29.8246C22.8038 29.6606 22.9402 29.5265 23.1069 29.5265C23.2736 29.5265 23.41 29.6606 23.41 29.8246C23.41 29.9886 23.2736 30.1227 23.1069 30.1227ZM3.71407 31.4613C3.54465 31.5641 3.40614 31.4392 3.40614 31.1837C3.40614 30.6599 3.588 30.583 3.84775 30.9965C3.94383 31.1492 3.8835 31.3581 3.71407 31.4613ZM32.3732 33.2852C31.6233 33.1001 31.3142 32.2853 31.8094 31.7985C32.2295 31.3853 33.5567 31.7552 33.6649 32.3157C33.8174 33.1051 33.2794 33.5088 32.3732 33.2852ZM30.5219 38.883C29.4799 38.2117 29.4381 36.0926 30.4568 35.5962C31.5236 35.0766 32.0443 35.1377 32.7181 35.8616C33.7007 36.9175 33.8059 37.6798 33.0921 38.5724C32.3668 39.4793 31.5924 39.5729 30.5219 38.883ZM49.3446 41.4019C47.8273 41.5718 46.7841 39.6695 47.8301 38.6404C48.4217 38.0587 48.4296 38.0587 49.5186 38.6916C50.2769 39.1323 50.399 39.3699 50.323 40.2568C50.2448 41.1669 50.1184 41.3151 49.3446 41.4019ZM43.8352 40.1369C43.9423 40.1116 44.0535 40.0571 44.1624 39.9682C44.3552 39.8107 44.4532 39.6834 44.4619 39.5511C47.2791 37.0563 51.001 35.5391 55.0816 35.5391C62.0122 35.5391 67.9084 39.9161 70.0939 46.0253C69.986 46.0824 69.8789 46.1497 69.7736 46.2278C69.1417 46.6965 69.0832 46.8852 69.342 47.6138C69.5867 48.3022 69.8299 48.4671 70.7626 48.5477C70.9186 49.4318 71 50.3413 71 51.2696C71 52.756 70.7914 54.1942 70.4015 55.5573C70.3454 55.6107 70.2865 55.6825 70.2371 55.7612C70.161 55.8822 70.174 55.987 70.2569 56.0336C69.6869 57.8084 68.8068 59.4468 67.6796 60.8866C67.4384 60.9635 67.1954 61.1097 67.0546 61.2765C66.847 61.5224 66.4894 61.7236 66.26 61.7236C65.8157 61.7236 65.7411 62.033 66.0327 62.6861C63.1793 65.3598 59.3242 67 55.0816 67C53.3148 67 51.6153 66.7156 50.0273 66.1905C50.0584 66.0436 50.0758 65.881 50.0772 65.7057C50.0835 64.7973 48.9112 64.3745 48.3353 65.0775C48.2535 65.1773 48.2081 65.3082 48.1935 65.4551C42.851 62.9172 39.1632 57.519 39.1632 51.2696C39.1632 46.9209 40.9489 42.9844 43.8352 40.1369ZM2.85694 40.7868C2.65872 40.8518 2.49688 40.6923 2.49688 40.4327C2.49688 40.173 2.71298 39.9607 2.97667 39.9607C3.51192 39.9607 3.41887 40.6026 2.85694 40.7868ZM56.4466 42.1967C56.201 42.1967 55.9543 41.9617 55.8979 41.6749C55.8264 41.3088 55.9901 41.1532 56.4466 41.1532C56.903 41.1532 57.0667 41.3088 56.9952 41.6749C56.9388 41.9617 56.6921 42.1967 56.4466 42.1967ZM54.044 47.8306C53.2711 46.5424 53.4423 44.9549 54.4274 44.2764C55.1696 43.7648 56.5366 43.7031 57.3725 44.1434C58.1718 44.564 58.7682 45.7773 58.8222 46.6578L61.546 43.9662L65.7148 48.0859L53.1655 60.487L44.7432 52.1642L45.1649 51.7474C45.045 51.6171 44.9329 51.4676 44.8316 51.2989C44.23 50.2969 44.1909 49.7499 44.6867 49.2621C44.8868 49.0654 45.4911 48.9044 46.03 48.9044C46.5924 48.9044 47.0916 49.1359 47.4462 49.4931L48.9121 48.0445L53.1655 52.2478L56.079 49.3687C55.8333 49.4125 55.651 49.3888 55.6082 49.2624C55.5412 49.0654 55.3069 48.9044 55.0872 48.9044C54.8678 48.9044 54.398 48.4211 54.044 47.8306ZM46.5111 50.4171C46.2067 50.3563 45.8343 50.4586 45.6869 50.6931C45.5732 50.874 45.5818 51.0776 45.6736 51.2448L46.5111 50.4171ZM31.2439 48.1355C30.3316 47.6714 30.1297 46.8891 30.7598 46.2612C31.2327 45.7899 32.8257 46.0561 33.304 46.6864C34.2157 47.8878 32.7642 48.9089 31.2439 48.1355ZM6.28155 48.9011C5.73266 48.4533 5.69051 47.5193 6.2097 47.313C6.80224 47.0778 6.89803 47.0921 7.28568 47.4734C8.18585 48.3588 7.24931 49.6911 6.28155 48.9011ZM10.3508 50.5602C9.9298 50.816 9.33665 50.2489 9.59488 49.8378C9.81007 49.4953 10.6803 49.7147 10.6803 50.1112C10.6803 50.248 10.532 50.4499 10.3508 50.5602ZM67.7611 55.563C66.8989 55.3632 66.5752 55.1238 66.503 54.6331C66.4154 54.0348 66.5349 53.9725 67.7708 53.9725C68.8911 53.9725 69.1717 54.0846 69.3375 54.5988C69.643 55.5454 69.1053 55.8742 67.7611 55.563ZM45.99 56.9537C45.74 56.9537 45.5354 56.7525 45.5354 56.5065C45.5354 56.2606 45.74 56.0593 45.99 56.0593C46.2401 56.0593 46.4446 56.2606 46.4446 56.5065C46.4446 56.7525 46.2401 56.9537 45.99 56.9537ZM65.337 56.8544C65.2482 56.7668 65.2652 56.5521 65.3752 56.3774C65.6222 55.9842 66.1454 55.9589 66.1454 56.3398C66.1454 56.6916 65.5544 57.0679 65.337 56.8544ZM45.0011 57.1153C44.8274 58.0078 44.2136 57.9348 44.0745 57.005C44.0039 56.5309 44.1348 56.3574 44.5631 56.3574C45.0265 56.3574 45.1174 56.5151 45.0011 57.1153ZM61.3075 58.4503C60.7161 58.139 60.4616 56.9793 60.8919 56.5563C61.0029 56.4469 61.4075 56.3574 61.7903 56.3574C62.4868 56.3574 63.1145 57.1159 63.1145 57.9575C63.1145 58.5633 62.0655 58.8494 61.3075 58.4503ZM67.9596 58.8915C66.9237 58.8915 66.9025 58.8667 66.8703 57.6245C66.8391 56.4195 66.8804 56.3574 67.7114 56.3574C68.3794 56.3574 68.6576 56.545 68.8928 57.1537C69.3902 58.4407 69.148 58.8915 67.9596 58.8915ZM45.2468 59.4967C44.895 59.2826 44.814 58.0606 45.1314 57.7488C45.3596 57.524 45.5878 57.6748 45.5824 58.0469C45.5802 58.1834 45.7921 58.5272 46.0528 58.8107C46.4834 59.2787 46.4828 59.3431 46.0458 59.508C45.7809 59.6079 45.4214 59.6028 45.2468 59.4967ZM65.1512 59.6726C64.9936 59.5175 64.9609 59.2373 65.0785 59.0501C65.337 58.639 66.2017 58.7585 66.3603 59.2275C66.5103 59.6699 65.5192 60.0345 65.1512 59.6726ZM59.4596 59.6368C59.3026 59.6368 59.1743 59.5026 59.1743 59.3387C59.1743 59.1747 59.3871 59.0405 59.6468 59.0405C59.9066 59.0405 60.0351 59.1747 59.9321 59.3387C59.829 59.5026 59.6166 59.6368 59.4596 59.6368ZM47.0457 61.7985C46.4574 61.0627 46.4574 61.0529 47.076 60.1984C48.1074 58.7737 49.7786 59.1833 49.7786 60.8609C49.7786 61.5218 49.8886 61.6396 50.3863 61.5114C51.0919 61.3301 51.9002 61.8882 51.9002 62.5566C51.9002 62.8106 51.6744 63.2634 51.3986 63.5634C50.9585 64.0418 50.9546 64.1086 51.3662 64.1086C51.9945 64.1086 52.3109 64.9812 51.7581 65.1896C51.2283 65.3896 50.6879 65.0963 50.6879 64.6089C50.6879 64.4115 50.3809 64.1176 50.0059 63.9557C49.631 63.7938 49.2785 63.346 49.223 62.9605C49.1418 62.3947 48.9794 62.2868 48.3802 62.3995C47.8443 62.5003 47.473 62.333 47.0457 61.7985ZM63.0966 61.7236C62.9396 61.7236 62.8114 61.5895 62.8114 61.4255C62.8114 61.2616 63.0242 61.1274 63.2839 61.1274C63.5437 61.1274 63.6722 61.2616 63.5691 61.4255C63.4661 61.5895 63.2536 61.7236 63.0966 61.7236ZM59.1743 63.3881C59.1743 63.9145 58.5218 63.823 58.3345 63.2703C58.2684 63.0753 58.4306 62.9161 58.6946 62.9161C58.9582 62.9161 59.1743 63.1284 59.1743 63.3881ZM55.1884 65.5488C54.7962 65.494 54.4356 65.2075 54.3768 64.9043C54.2949 64.4816 54.4304 64.3805 54.9769 64.4571C55.3691 64.512 55.7297 64.7985 55.7885 65.1017C55.8704 65.5244 55.7349 65.6255 55.1884 65.5488ZM31.2773 60.0399C32.9283 59.0252 35.0068 57.6395 36.4409 56.5575C36.7644 57.512 37.2364 58.5143 37.9186 59.8138C38.81 61.5121 38.9002 61.8547 38.5456 62.1952C37.8307 62.8818 32.0111 66.4237 31.5978 66.4237C31.4335 66.4237 31.3348 64.9816 31.2773 60.0399Z" fill="black"/>
</svg>
